<svg xmlns="http://www.w3.org/2000/svg" xmlns:xlink="http://www.w3.org/1999/xlink" xmlns:lucid="lucid" width="640" height="1188"><g transform="translate(-275 -112)" lucid:page-tab-id="0_0"><path d="M0 0h1760v1360H0z" fill="#fff"/><path d="M502 130.58c15.46 0 28 17.9 28 40s-12.54 40-28 40h-84c-15.46 0-28-17.9-28-40s12.54-40 28-40z" stroke="#282c33" stroke-width="3" fill-opacity="0"/><use xlink:href="#a" transform="matrix(1,0,0,1,395,135.57761197863147) translate(36.05 17)"/><use xlink:href="#b" transform="matrix(1,0,0,1,395,135.57761197863147) translate(14.274999999999991 38.6)"/><use xlink:href="#c" transform="matrix(1,0,0,1,395,135.57761197863147) translate(110.72500000000001 38.6)"/><use xlink:href="#d" transform="matrix(1,0,0,1,395,135.57761197863147) translate(39.025 60.2)"/><path d="M453.6 404.8a10.67 10.67 0 0 1 12.8 0l67.2 50.4a6 6 0 0 1 0 9.6l-67.2 50.4a10.67 10.67 0 0 1-12.8 0l-67.2-50.4a6 6 0 0 1 0-9.6z" stroke="#282c33" stroke-width="4" fill="#fff"/><use xlink:href="#e" transform="matrix(1,0,0,1,385,405) translate(47.025 58.6)"/><path d="M453.15 78.58a8 8 0 0 1 8-8h836.75a8 8 0 0 1 8 8v25.15a8 8 0 0 1-8 8H461.15a8 8 0 0 1-8-8z" stroke="#000" stroke-opacity="0" stroke-width="2" fill="#fff" fill-opacity="0"/><use xlink:href="#f" transform="matrix(1,0,0,1,457.14655278534315,74.57761197839864) translate(401.8093827160494 23.657777777777778)"/><path d="M734.8 110.4h300.5M734.82 110.4h-1.03M1035.28 110.4h1.03" stroke="#a9afb8" stroke-width="2" fill="none"/><path d="M453.15 119.73a8 8 0 0 1 8-8h837.7a8 8 0 0 1 8 8v2.85a8 8 0 0 1-8 8h-837.7a8 8 0 0 1-8-8z" stroke="#000" stroke-opacity="0" stroke-width="2" fill="#fff" fill-opacity="0"/><use xlink:href="#g" transform="matrix(1,0,0,1,457.1465527853436,115.73283593529744) translate(289.32316872427987 14.917037037037037)"/><use xlink:href="#h" transform="matrix(1,0,0,1,457.1465527853436,115.73283593529744) translate(361.51318930041157 14.917037037037037)"/><use xlink:href="#i" transform="matrix(1,0,0,1,457.1465527853436,115.73283593529744) translate(420.91380658436213 14.917037037037037)"/><use xlink:href="#j" transform="matrix(1,0,0,1,457.1465527853436,115.73283593529744) translate(433.36329218106994 14.917037037037037)"/><use xlink:href="#k" transform="matrix(1,0,0,1,457.1465527853436,115.73283593529744) translate(512.3091769547325 14.917037037037037)"/><use xlink:href="#l" transform="matrix(1,0,0,1,457.1465527853436,115.73283593529744) translate(529.305061728395 14.917037037037037)"/><path d="M453.6 1024.8a10.67 10.67 0 0 1 12.8 0l67.2 50.4a6 6 0 0 1 0 9.6l-67.2 50.4a10.67 10.67 0 0 1-12.8 0l-67.2-50.4a6 6 0 0 1 0-9.6z" stroke="#282c33" stroke-width="4" fill="#fff"/><use xlink:href="#m" transform="matrix(1,0,0,1,385,1025) translate(15.151851851851845 58.46666666666666)"/><use xlink:href="#n" transform="matrix(1,0,0,1,385,1025) translate(95.41481481481482 58.46666666666666)"/><path d="M453.6 724.8a10.67 10.67 0 0 1 12.8 0l67.2 50.4a6 6 0 0 1 0 9.6l-67.2 50.4a10.67 10.67 0 0 1-12.8 0l-67.2-50.4a6 6 0 0 1 0-9.6z" stroke="#282c33" stroke-width="4" fill="#fff"/><use xlink:href="#o" transform="matrix(1,0,0,1,385,725) translate(22.849999999999994 58.6)"/><path d="M380 578a8 8 0 0 1 8-8h144a8 8 0 0 1 8 8v84a8 8 0 0 1-8 8H388a8 8 0 0 1-8-8z" stroke="#333" fill="#fff"/><use xlink:href="#p" transform="matrix(1,0,0,1,392,582) translate(14.549999999999997 41.6)"/><use xlink:href="#q" transform="matrix(1,0,0,1,392,582) translate(58.45 41.6)"/><path d="M460.5 533.64h-1v-13.8h1z" stroke="#333" stroke-width=".05" fill="#333"/><path d="M460 519.34l.5-.03v.55h-1v-.54z" fill="#333"/><path d="M460 519.3l.52-.02v.6h-1.04v-.6zm-.48.53h.96v-.5l-.48.03-.48-.03z" stroke="#333" stroke-width=".05" fill="#333"/><path d="M460 567.93l-4.12-12.7h8.24z" fill="#333"/><path d="M460 569.55l-4.65-14.3h1.05l3.6 11.06 3.6-11.06h1.05z" stroke="#333" stroke-width=".05" fill="#333"/><use xlink:href="#r" transform="matrix(1,0,0,1,451.5,533.643162555865) translate(0.005000000000000782 14.4)"/><path d="M380 881.25a8 8 0 0 1 8-8h144a8 8 0 0 1 8 8v84a8 8 0 0 1-8 8H388a8 8 0 0 1-8-8z" stroke="#333" fill="#fff"/><use xlink:href="#s" transform="matrix(1,0,0,1,392,885.2499999999507) translate(14.024999999999999 41.6)"/><use xlink:href="#t" transform="matrix(1,0,0,1,392,885.2499999999507) translate(57.475 41.6)"/><path d="M460 670.95v33.33" stroke="#333" fill="none"/><path d="M460.5 670.96h-1v-.5h1z" stroke="#333" stroke-width=".05" fill="#333"/><path d="M460 719.04l-4.64-14.26h9.28z" stroke="#333" fill="#333"/><path d="M578.5 681.62l-.14 1.94-.46 1.9-.75 1.82-1.03 1.67-1.27 1.5-1.5 1.26-1.67 1.04-1.8.75-1.93.45-91.57.15v-1l91.45-.15 1.73-.4 1.67-.7 1.54-.95 1.37-1.17 1.17-1.37.95-1.54.7-1.67.42-1.75.14-1.82-.03-54.98h1zm-10.54-221.97l1.9.46 1.82.76 1.68 1.03 1.5 1.26 1.26 1.5 1.03 1.66.75 1.82.46 1.92.1 134.94h-1l-.1-134.82-.42-1.73-.7-1.67-.93-1.54-1.16-1.37-1.37-1.17-1.54-.95-1.67-.7-1.75-.4-1.8-.15h-27.5v-1h27.53z" stroke="#333" stroke-width=".05" fill="#333"/><path d="M538.52 460.5h-.56l.05-.5-.04-.5h.56z" fill="#333"/><path d="M538.55 460.52h-.62l.05-.52-.05-.52h.62zm-.56-1l.03.48-.04.48h.5v-.96z" stroke="#333" stroke-width=".05" fill="#333"/><path d="M475.88 698.24l-14.26-4.64 14.26-4.64z" fill="#333"/><path d="M476.38 698.92L460 693.6l16.38-5.32zm-13.14-5.32l12.14 3.95v-7.9z" stroke="#333" stroke-width=".05" fill="#333"/><use xlink:href="#u" transform="matrix(1,0,0,1,566.5335883971484,605.0042941985743) translate(0.005000000000000782 14.4)"/><path d="M600 881.25a8 8 0 0 1 8-8h144a8 8 0 0 1 8 8v84a8 8 0 0 1-8 8H608a8 8 0 0 1-8-8z" stroke="#333" fill="#fff"/><use xlink:href="#v" transform="matrix(1,0,0,1,612,885.2499999999507) translate(1.8999999999999915 41.6)"/><use xlink:href="#w" transform="matrix(1,0,0,1,612,885.2499999999507) translate(49.29999999999999 41.6)"/><path d="M460.5 845.27h-1v-5.43h1z" stroke="#333" stroke-width=".05" fill="#333"/><path d="M460 839.34l.5-.03v.55h-1v-.54z" fill="#333"/><path d="M460 839.3l.52-.02v.6h-1.04v-.6zm-.48.53h.96v-.5l-.48.03-.48-.03z" stroke="#333" stroke-width=".05" fill="#333"/><path d="M460 871.18l-1.4-4.3h2.8z" fill="#333"/><path d="M460 872.8l-1.93-5.93h1.05l.88 2.7.88-2.7h1.05z" stroke="#333" stroke-width=".05" fill="#333"/><use xlink:href="#r" transform="matrix(1,0,0,1,451.5,845.2681625558403) translate(0.005000000000000782 14.4)"/><path d="M669.96 779.65l1.9.46 1.82.76 1.67 1.03 1.5 1.26 1.26 1.5 1.04 1.66.75 1.82.45 1.92.15 66.35-1 .02-.15-66.24-.4-1.73-.7-1.67-.95-1.54-1.17-1.37-1.37-1.17-1.54-.95-1.67-.7-1.75-.4-1.82-.15h-1.1v-1h1.14zm-131.45.85v-1h105.43v1z" stroke="#333" stroke-width=".05" fill="#333"/><path d="M538.52 780.5h-.56l.05-.5-.04-.5h.56z" fill="#333"/><path d="M538.55 780.52h-.62l.05-.52-.05-.52h.62zm-.56-1l.03.48-.04.48h.5v-.96z" stroke="#333" stroke-width=".05" fill="#333"/><path d="M680 871.18l-4.64-14.27h9.28z" fill="#333"/><path d="M680 872.8l-5.32-16.4h10.64zm-3.95-15.4l3.95 12.16 3.95-12.15z" stroke="#333" stroke-width=".05" fill="#333"/><use xlink:href="#u" transform="matrix(1,0,0,1,643.9287263066225,769.2) translate(0.005000000000000782 14.4)"/><path d="M460 974.2v30.08" stroke="#333" fill="none"/><path d="M460.5 974.2h-1v-.5h1z" stroke="#333" stroke-width=".05" fill="#333"/><path d="M460 1019.04l-4.64-14.26h9.28z" stroke="#333" fill="#333"/><path d="M680 974.2v8.2a12 12 0 0 1-12 12H476.38" stroke="#333" fill="none"/><path d="M680.5 974.2h-1v-.5h1z" stroke="#333" stroke-width=".05" fill="#333"/><path d="M461.62 994.4l14.26-4.64v9.28z" stroke="#333" fill="#333"/><path d="M380 1188a8 8 0 0 1 8-8h144a8 8 0 0 1 8 8v84a8 8 0 0 1-8 8H388a8 8 0 0 1-8-8z" stroke="#333" stroke-width="3" fill="#fff"/><use xlink:href="#x" transform="matrix(1,0,0,1,392,1192) translate(23.325000000000003 30.799999999999997)"/><use xlink:href="#y" transform="matrix(1,0,0,1,392,1192) translate(21.549999999999997 52.4)"/><use xlink:href="#z" transform="matrix(1,0,0,1,392,1192) translate(71.5 52.4)"/><use xlink:href="#A" transform="matrix(1,0,0,1,392,1192) translate(91.5 52.4)"/><path d="M460.5 1148.14h-1v-8.3h1z" stroke="#333" stroke-width=".05" fill="#333"/><path d="M460 1139.34l.5-.03v.55h-1v-.54z" fill="#333"/><path d="M460 1139.3l.52-.02v.6h-1.04v-.6zm-.48.53h.96v-.5l-.48.03-.48-.03z" stroke="#333" stroke-width=".05" fill="#333"/><path d="M460 1176.93l-2.34-7.2h4.68z" fill="#333"/><path d="M460 1178.55l-2.86-8.8h1.05l1.8 5.56 1.8-5.56h1.06z" stroke="#333" stroke-width=".05" fill="#333"/><use xlink:href="#r" transform="matrix(1,0,0,1,451.5,1148.1431624407162) translate(0.005000000000000782 14.4)"/><path d="M453.6 254.8a10.67 10.67 0 0 1 12.8 0l67.2 50.4a6 6 0 0 1 0 9.6l-67.2 50.4a10.67 10.67 0 0 1-12.8 0l-67.2-50.4a6 6 0 0 1 0-9.6z" stroke="#333" fill="#fff"/><use xlink:href="#B" transform="matrix(1,0,0,1,385,255) translate(5.824999999999989 58.6)"/><use xlink:href="#C" transform="matrix(1,0,0,1,385,255) translate(84.27499999999999 58.6)"/><path d="M460 212.58v11.04" stroke="#333" fill="none"/><path d="M460.5 212.6h-1v-.52h1z" stroke="#333" stroke-width=".05" fill="#333"/><path d="M460 238.38l-4.64-14.26h9.28z" stroke="#333" fill="#333"/><path d="M460.5 373.45h-1v-5.12h1z" stroke="#333" stroke-width=".05" fill="#333"/><path d="M460 367.83l.5-.03v.55h-1v-.55z" fill="#333"/><path d="M460 367.8l.52-.02v.6h-1.04v-.6zm-.48.52h.96v-.5l-.48.04-.48-.03z" stroke="#333" stroke-width=".05" fill="#333"/><path d="M460 399.04l-1.3-4h2.6z" fill="#333"/><path d="M460 400.66l-1.82-5.6h1.05l.77 2.37.77-2.38h1.05z" stroke="#333" stroke-width=".05" fill="#333"/><g><use xlink:href="#r" transform="matrix(1,0,0,1,451.5,373.44844424916) translate(0.005000000000000782 14.4)"/></g><path d="M720 269.13a8 8 0 0 1 8-8h144a8 8 0 0 1 8 8v84a8 8 0 0 1-8 8H728a8 8 0 0 1-8-8z" stroke="#333" stroke-width="2" fill="#fff"/><g><use xlink:href="#D" transform="matrix(1,0,0,1,732,273.12500000000824) translate(12.374999999999993 41.6)"/><use xlink:href="#E" transform="matrix(1,0,0,1,732,273.12500000000824) translate(74.175 41.6)"/></g><path d="M616.3 310.5H537v-1h79.3zm86.36 0h-63.4v-1h63.4z" stroke="#333" stroke-width=".05" fill="#333"/><path d="M537 310.5h-.54l.04-.5-.04-.5h.55z" fill="#333"/><path d="M537.04 310.52h-.6l.04-.52-.05-.52h.6zm-.56-1l.05.48-.05.48h.5v-.96z" stroke="#333" stroke-width=".05" fill="#333"/><path d="M717.43 310l-14.27 4.63v-9.27z" fill="#333"/><path d="M719.05 310l-16.4 5.32v-10.65zm-15.4 3.94l12.16-3.95-12.14-3.95z" stroke="#333" stroke-width=".05" fill="#333"/><g><use xlink:href="#u" transform="matrix(1,0,0,1,616.2996853514977,299.19650409979096) translate(0.005000000000000782 14.4)"/></g><defs><path fill="#333" d="M30-248c87 1 191-15 191 75 0 78-77 80-158 76V0H30v-248zm33 125c57 0 124 11 124-50 0-59-68-47-124-48v98" id="F"/><path fill="#333" d="M141-36C126-15 110 5 73 4 37 3 15-17 15-53c-1-64 63-63 125-63 3-35-9-54-41-54-24 1-41 7-42 31l-33-3c5-37 33-52 76-52 45 0 72 20 72 64v82c-1 20 7 32 28 27v20c-31 9-61-2-59-35zM48-53c0 20 12 33 32 33 41-3 63-29 60-74-43 2-92-5-92 41" id="G"/><path fill="#333" d="M114-163C36-179 61-72 57 0H25l-1-190h30c1 12-1 29 2 39 6-27 23-49 58-41v29" id="H"/><path fill="#333" d="M210-169c-67 3-38 105-44 169h-31v-121c0-29-5-50-35-48C34-165 62-65 56 0H25l-1-190h30c1 10-1 24 2 32 10-44 99-50 107 0 11-21 27-35 58-36 85-2 47 119 55 194h-31v-121c0-29-5-49-35-48" id="I"/><path fill="#333" d="M33-154v-36h34v36H33zM33 0v-36h34V0H33" id="J"/><g id="a"><use transform="matrix(0.05,0,0,0.05,0,0)" xlink:href="#F"/><use transform="matrix(0.05,0,0,0.05,12,0)" xlink:href="#G"/><use transform="matrix(0.05,0,0,0.05,22,0)" xlink:href="#H"/><use transform="matrix(0.05,0,0,0.05,27.950000000000003,0)" xlink:href="#G"/><use transform="matrix(0.05,0,0,0.05,37.95,0)" xlink:href="#I"/><use transform="matrix(0.05,0,0,0.05,52.900000000000006,0)" xlink:href="#J"/></g><path fill="#333" d="M233-177c-1 41-23 64-60 70L243 0h-38l-65-103H63V0H30v-248c88 3 205-21 203 71zM63-129c60-2 137 13 137-47 0-61-80-42-137-45v92" id="K"/><path fill="#333" d="M127-220V0H93v-220H8v-28h204v28h-85" id="L"/><path fill="#333" d="M212-179c-10-28-35-45-73-45-59 0-87 40-87 99 0 60 29 101 89 101 43 0 62-24 78-52l27 14C228-24 195 4 139 4 59 4 22-46 18-125c-6-104 99-153 187-111 19 9 31 26 39 46" id="M"/><path fill="#333" d="M185-189c-5-48-123-54-124 2 14 75 158 14 163 119 3 78-121 87-175 55-17-10-28-26-33-46l33-7c5 56 141 63 141-1 0-78-155-14-162-118-5-82 145-84 179-34 5 7 8 16 11 25" id="N"/><path fill="#333" d="M59-47c-2 24 18 29 38 22v24C64 9 27 4 27-40v-127H5v-23h24l9-43h21v43h35v23H59v120" id="O"/><path fill="#333" d="M100-194c63 0 86 42 84 106H49c0 40 14 67 53 68 26 1 43-12 49-29l28 8c-11 28-37 45-77 45C44 4 14-33 15-96c1-61 26-98 85-98zm52 81c6-60-76-77-97-28-3 7-6 17-6 28h103" id="P"/><g id="b"><use transform="matrix(0.05,0,0,0.05,0,0)" xlink:href="#K"/><use transform="matrix(0.05,0,0,0.05,12.600000000000001,0)" xlink:href="#L"/><use transform="matrix(0.05,0,0,0.05,23.550000000000004,0)" xlink:href="#M"/><use transform="matrix(0.05,0,0,0.05,36.50000000000001,0)" xlink:href="#M"/><use transform="matrix(0.05,0,0,0.05,49.45000000000001,0)" xlink:href="#N"/><use transform="matrix(0.05,0,0,0.05,61.45000000000002,0)" xlink:href="#O"/><use transform="matrix(0.05,0,0,0.05,66.45000000000002,0)" xlink:href="#G"/><use transform="matrix(0.05,0,0,0.05,76.45000000000002,0)" xlink:href="#O"/><use transform="matrix(0.05,0,0,0.05,81.45000000000002,0)" xlink:href="#P"/></g><path fill="#333" d="M68-38c1 34 0 65-14 84H32c9-13 17-26 17-46H33v-38h35" id="Q"/><use transform="matrix(0.05,0,0,0.05,0,0)" xlink:href="#Q" id="c"/><path fill="#333" d="M-5 72V49h209v23H-5" id="R"/><path fill="#333" d="M141 0L90-78 38 0H4l68-98-65-92h35l48 74 47-74h35l-64 92 68 98h-35" id="S"/><path fill="#333" d="M68-36c1 33-1 63-14 82H32c9-13 17-26 17-46H33v-36h35zM33-154v-36h35v36H33" id="T"/><g id="d"><use transform="matrix(0.05,0,0,0.05,0,0)" xlink:href="#N"/><use transform="matrix(0.05,0,0,0.05,12,0)" xlink:href="#O"/><use transform="matrix(0.05,0,0,0.05,17,0)" xlink:href="#R"/><use transform="matrix(0.05,0,0,0.05,27,0)" xlink:href="#L"/><use transform="matrix(0.05,0,0,0.05,37.95,0)" xlink:href="#S"/><use transform="matrix(0.05,0,0,0.05,46.95,0)" xlink:href="#T"/></g><path fill="#333" d="M27 0v-27h64v-190l-56 39v-29l58-41h29v221h61V0H27" id="U"/><path fill="#333" d="M106-169C34-169 62-67 57 0H25v-261h32l-1 103c12-21 28-36 61-36 89 0 53 116 60 194h-32v-121c2-32-8-49-39-48" id="V"/><path fill="#333" d="M100-194c62-1 85 37 85 99 1 63-27 99-86 99S16-35 15-95c0-66 28-99 85-99zM99-20c44 1 53-31 53-75 0-43-8-75-51-75s-53 32-53 75 10 74 51 75" id="W"/><path fill="#333" d="M103-251c84 0 111 97 45 133-19 10-37 24-39 52H78c0-63 77-55 77-114 0-30-21-42-52-43-32 0-53 17-56 46l-32-2c7-45 34-72 88-72zM77 0v-35h34V0H77" id="X"/><g id="e"><use transform="matrix(0.05,0,0,0.05,0,0)" xlink:href="#U"/><use transform="matrix(0.05,0,0,0.05,10,0)" xlink:href="#V"/><use transform="matrix(0.05,0,0,0.05,20,0)" xlink:href="#W"/><use transform="matrix(0.05,0,0,0.05,30,0)" xlink:href="#H"/><use transform="matrix(0.05,0,0,0.05,35.95,0)" xlink:href="#G"/><use transform="matrix(0.05,0,0,0.05,45.95,0)" xlink:href="#X"/></g><path fill="#a9afb8" d="M135-150c-39-12-60 13-60 57V0H25l-1-190h47c2 13-1 29 3 40 6-28 27-53 61-41v41" id="Y"/><path fill="#a9afb8" d="M115-3C79 11 28 4 28-45v-112H4v-33h27l15-45h31v45h36v33H77v99c-1 23 16 31 38 25v30" id="Z"/><path fill="#a9afb8" d="M190-63c-7 42-38 67-86 67-59 0-84-38-90-98-12-110 154-137 174-36l-49 2c-2-19-15-32-35-32-30 0-35 28-38 64-6 74 65 87 74 30" id="aa"/><g id="f"><use transform="matrix(0.0728395061728395,0,0,0.0728395061728395,0,0)" xlink:href="#Y"/><use transform="matrix(0.0728395061728395,0,0,0.0728395061728395,10.19753086419753,0)" xlink:href="#Z"/><use transform="matrix(0.0728395061728395,0,0,0.0728395061728395,18.86543209876543,0)" xlink:href="#aa"/><use transform="matrix(0.0728395061728395,0,0,0.0728395061728395,33.43333333333333,0)" xlink:href="#aa"/></g><path fill="#a9afb8" d="M185-189c-5-48-123-54-124 2 14 75 158 14 163 119 3 78-121 87-175 55-17-10-28-26-33-46l33-7c5 56 141 63 141-1 0-78-155-14-162-118-5-82 145-84 179-34 5 7 8 16 11 25" id="ab"/><path fill="#a9afb8" d="M100-194c63 0 86 42 84 106H49c0 40 14 67 53 68 26 1 43-12 49-29l28 8c-11 28-37 45-77 45C44 4 14-33 15-96c1-61 26-98 85-98zm52 81c6-60-76-77-97-28-3 7-6 17-6 28h103" id="ac"/><path fill="#a9afb8" d="M115-194c53 0 69 39 70 98 0 66-23 100-70 100C84 3 66-7 56-30L54 0H23l1-261h32v101c10-23 28-34 59-34zm-8 174c40 0 45-34 45-75 0-40-5-75-45-74-42 0-51 32-51 76 0 43 10 73 51 73" id="ad"/><path fill="#a9afb8" d="M141-36C126-15 110 5 73 4 37 3 15-17 15-53c-1-64 63-63 125-63 3-35-9-54-41-54-24 1-41 7-42 31l-33-3c5-37 33-52 76-52 45 0 72 20 72 64v82c-1 20 7 32 28 27v20c-31 9-61-2-59-35zM48-53c0 20 12 33 32 33 41-3 63-29 60-74-43 2-92-5-92 41" id="ae"/><path fill="#a9afb8" d="M135-143c-3-34-86-38-87 0 15 53 115 12 119 90S17 21 10-45l28-5c4 36 97 45 98 0-10-56-113-15-118-90-4-57 82-63 122-42 12 7 21 19 24 35" id="af"/><path fill="#a9afb8" d="M59-47c-2 24 18 29 38 22v24C64 9 27 4 27-40v-127H5v-23h24l9-43h21v43h35v23H59v120" id="ag"/><path fill="#a9afb8" d="M24-231v-30h32v30H24zM24 0v-190h32V0H24" id="ah"/><path fill="#a9afb8" d="M141-36C126-15 110 5 73 4 37 3 15-17 15-53c-1-64 63-63 125-63 3-35-9-54-41-54-24 1-41 7-42 31l-33-3c5-37 33-52 76-52 45 0 72 20 72 64v82c-1 20 7 32 28 27v20c-31 9-61-2-59-35zM48-53c0 20 12 33 32 33 41-3 63-29 60-74-43 2-92-5-92 41zm25-158c8-23 27-35 38-54h36v5l-58 49H73" id="ai"/><path fill="#a9afb8" d="M117-194c89-4 53 116 60 194h-32v-121c0-31-8-49-39-48C34-167 62-67 57 0H25l-1-190h30c1 10-1 24 2 32 11-22 29-35 61-36" id="aj"/><g id="g"><use transform="matrix(0.04248971193415638,0,0,0.04248971193415638,0,0)" xlink:href="#ab"/><use transform="matrix(0.04248971193415638,0,0,0.04248971193415638,10.19753086419753,0)" xlink:href="#ac"/><use transform="matrix(0.04248971193415638,0,0,0.04248971193415638,18.695473251028805,0)" xlink:href="#ad"/><use transform="matrix(0.04248971193415638,0,0,0.04248971193415638,27.193415637860078,0)" xlink:href="#ae"/><use transform="matrix(0.04248971193415638,0,0,0.04248971193415638,35.691358024691354,0)" xlink:href="#af"/><use transform="matrix(0.04248971193415638,0,0,0.04248971193415638,43.3395061728395,0)" xlink:href="#ag"/><use transform="matrix(0.04248971193415638,0,0,0.04248971193415638,47.588477366255134,0)" xlink:href="#ah"/><use transform="matrix(0.04248971193415638,0,0,0.04248971193415638,50.945164609053485,0)" xlink:href="#ai"/><use transform="matrix(0.04248971193415638,0,0,0.04248971193415638,59.44310699588476,0)" xlink:href="#aj"/></g><path fill="#a9afb8" d="M205 0l-28-72H64L36 0H1l101-248h38L239 0h-34zm-38-99l-47-123c-12 45-31 82-46 123h93" id="ak"/><path fill="#a9afb8" d="M24 0v-261h32V0H24" id="al"/><path fill="#a9afb8" d="M85-194c31 0 48 13 60 33l-1-100h32l1 261h-30c-2-10 0-23-3-31C134-8 116 4 85 4 32 4 16-35 15-94c0-66 23-100 70-100zm9 24c-40 0-46 34-46 75 0 40 6 74 45 74 42 0 51-32 51-76 0-42-9-74-50-73" id="am"/><g id="h"><use transform="matrix(0.04248971193415638,0,0,0.04248971193415638,0,0)" xlink:href="#ak"/><use transform="matrix(0.04248971193415638,0,0,0.04248971193415638,10.19753086419753,0)" xlink:href="#al"/><use transform="matrix(0.04248971193415638,0,0,0.04248971193415638,13.554218106995881,0)" xlink:href="#al"/><use transform="matrix(0.04248971193415638,0,0,0.04248971193415638,16.910905349794238,0)" xlink:href="#ac"/><use transform="matrix(0.04248971193415638,0,0,0.04248971193415638,25.408847736625507,0)" xlink:href="#aj"/><use transform="matrix(0.04248971193415638,0,0,0.04248971193415638,33.90679012345679,0)" xlink:href="#am"/><use transform="matrix(0.04248971193415638,0,0,0.04248971193415638,42.40473251028806,0)" xlink:href="#ac"/></g><path fill="#a9afb8" d="M32 76v-337h29V76H32" id="an"/><use transform="matrix(0.04248971193415638,0,0,0.04248971193415638,0,0)" xlink:href="#an" id="i"/><path fill="#a9afb8" d="M115-194c55 1 70 41 70 98S169 2 115 4C84 4 66-9 55-30l1 105H24l-1-265h31l2 30c10-21 28-34 59-34zm-8 174c40 0 45-34 45-75s-6-73-45-74c-42 0-51 32-51 76 0 43 10 73 51 73" id="ao"/><path fill="#a9afb8" d="M210-169c-67 3-38 105-44 169h-31v-121c0-29-5-50-35-48C34-165 62-65 56 0H25l-1-190h30c1 10-1 24 2 32 10-44 99-50 107 0 11-21 27-35 58-36 85-2 47 119 55 194h-31v-121c0-29-5-49-35-48" id="ap"/><path fill="#a9afb8" d="M114-163C36-179 61-72 57 0H25l-1-190h30c1 12-1 29 2 39 6-27 23-49 58-41v29" id="aq"/><g id="j"><use transform="matrix(0.04248971193415638,0,0,0.04248971193415638,0,0)" xlink:href="#ab"/><use transform="matrix(0.04248971193415638,0,0,0.04248971193415638,10.19753086419753,0)" xlink:href="#ac"/><use transform="matrix(0.04248971193415638,0,0,0.04248971193415638,18.695473251028805,0)" xlink:href="#ao"/><use transform="matrix(0.04248971193415638,0,0,0.04248971193415638,27.193415637860078,0)" xlink:href="#ag"/><use transform="matrix(0.04248971193415638,0,0,0.04248971193415638,31.442386831275712,0)" xlink:href="#ac"/><use transform="matrix(0.04248971193415638,0,0,0.04248971193415638,39.94032921810699,0)" xlink:href="#ap"/><use transform="matrix(0.04248971193415638,0,0,0.04248971193415638,52.64475308641975,0)" xlink:href="#ad"/><use transform="matrix(0.04248971193415638,0,0,0.04248971193415638,61.142695473251024,0)" xlink:href="#ac"/><use transform="matrix(0.04248971193415638,0,0,0.04248971193415638,69.6406378600823,0)" xlink:href="#aq"/></g><path fill="#a9afb8" d="M54-142c48-35 137-8 131 61C196 18 31 33 14-55l32-4c7 23 22 37 52 37 35-1 51-22 54-58 4-55-73-65-99-34H22l8-134h141v27H59" id="ar"/><path fill="#a9afb8" d="M68-38c1 34 0 65-14 84H32c9-13 17-26 17-46H33v-38h35" id="as"/><g id="k"><use transform="matrix(0.04248971193415638,0,0,0.04248971193415638,0,0)" xlink:href="#ar"/><use transform="matrix(0.04248971193415638,0,0,0.04248971193415638,8.497942386831275,0)" xlink:href="#as"/></g><path fill="#a9afb8" d="M101-251c82-7 93 87 43 132L82-64C71-53 59-42 53-27h129V0H18c2-99 128-94 128-182 0-28-16-43-45-43s-46 15-49 41l-32-3c6-41 34-60 81-64" id="at"/><path fill="#a9afb8" d="M101-251c68 0 85 55 85 127S166 4 100 4C33 4 14-52 14-124c0-73 17-127 87-127zm-1 229c47 0 54-49 54-102s-4-102-53-102c-51 0-55 48-55 102 0 53 5 102 54 102" id="au"/><g id="l"><use transform="matrix(0.04248971193415638,0,0,0.04248971193415638,0,0)" xlink:href="#at"/><use transform="matrix(0.04248971193415638,0,0,0.04248971193415638,8.497942386831275,0)" xlink:href="#au"/><use transform="matrix(0.04248971193415638,0,0,0.04248971193415638,16.99588477366255,0)" xlink:href="#at"/><use transform="matrix(0.04248971193415638,0,0,0.04248971193415638,25.493827160493822,0)" xlink:href="#at"/></g><path d="M233-177c-1 41-23 64-60 70L243 0h-38l-65-103H63V0H30v-248c88 3 205-21 203 71zM63-129c60-2 137 13 137-47 0-61-80-42-137-45v92" id="av"/><path d="M100-194c63 0 86 42 84 106H49c0 40 14 67 53 68 26 1 43-12 49-29l28 8c-11 28-37 45-77 45C44 4 14-33 15-96c1-61 26-98 85-98zm52 81c6-60-76-77-97-28-3 7-6 17-6 28h103" id="aw"/><path d="M141-36C126-15 110 5 73 4 37 3 15-17 15-53c-1-64 63-63 125-63 3-35-9-54-41-54-24 1-41 7-42 31l-33-3c5-37 33-52 76-52 45 0 72 20 72 64v82c-1 20 7 32 28 27v20c-31 9-61-2-59-35zM48-53c0 20 12 33 32 33 41-3 63-29 60-74-43 2-92-5-92 41" id="ax"/><path d="M24 0v-261h32V0H24" id="ay"/><path d="M185-189c-5-48-123-54-124 2 14 75 158 14 163 119 3 78-121 87-175 55-17-10-28-26-33-46l33-7c5 56 141 63 141-1 0-78-155-14-162-118-5-82 145-84 179-34 5 7 8 16 11 25" id="az"/><path d="M100-194c62-1 85 37 85 99 1 63-27 99-86 99S16-35 15-95c0-66 28-99 85-99zM99-20c44 1 53-31 53-75 0-43-8-75-51-75s-53 32-53 75 10 74 51 75" id="aA"/><path d="M59-47c-2 24 18 29 38 22v24C64 9 27 4 27-40v-127H5v-23h24l9-43h21v43h35v23H59v120" id="aB"/><path d="M18-150v-26h174v26H18zm0 90v-26h174v26H18" id="aC"/><g id="m"><use transform="matrix(0.048148148148148155,0,0,0.048148148148148155,0,0)" xlink:href="#av"/><use transform="matrix(0.048148148148148155,0,0,0.048148148148148155,12.470370370370372,0)" xlink:href="#aw"/><use transform="matrix(0.048148148148148155,0,0,0.048148148148148155,22.1,0)" xlink:href="#ax"/><use transform="matrix(0.048148148148148155,0,0,0.048148148148148155,31.729629629629635,0)" xlink:href="#ay"/><use transform="matrix(0.048148148148148155,0,0,0.048148148148148155,35.53333333333334,0)" xlink:href="#az"/><use transform="matrix(0.048148148148148155,0,0,0.048148148148148155,47.088888888888896,0)" xlink:href="#ay"/><use transform="matrix(0.048148148148148155,0,0,0.048148148148148155,50.8925925925926,0)" xlink:href="#aA"/><use transform="matrix(0.048148148148148155,0,0,0.048148148148148155,60.52222222222223,0)" xlink:href="#aB"/><use transform="matrix(0.048148148148148155,0,0,0.048148148148148155,65.33703703703705,0)" xlink:href="#aC"/></g><path d="M103-251c84 0 111 97 45 133-19 10-37 24-39 52H78c0-63 77-55 77-114 0-30-21-42-52-43-32 0-53 17-56 46l-32-2c7-45 34-72 88-72zM77 0v-35h34V0H77" id="aD"/><g id="n"><use transform="matrix(0.048148148148148155,0,0,0.048148148148148155,0,0)" xlink:href="#az"/><use transform="matrix(0.048148148148148155,0,0,0.048148148148148155,11.555555555555557,0)" xlink:href="#ay"/><use transform="matrix(0.048148148148148155,0,0,0.048148148148148155,15.359259259259261,0)" xlink:href="#aA"/><use transform="matrix(0.048148148148148155,0,0,0.048148148148148155,24.988888888888894,0)" xlink:href="#aB"/><use transform="matrix(0.048148148148148155,0,0,0.048148148148148155,29.803703703703714,0)" xlink:href="#aD"/></g><path fill="#333" d="M135-143c-3-34-86-38-87 0 15 53 115 12 119 90S17 21 10-45l28-5c4 36 97 45 98 0-10-56-113-15-118-90-4-57 82-63 122-42 12 7 21 19 24 35" id="aE"/><path fill="#333" d="M18-150v-26h174v26H18zm0 90v-26h174v26H18" id="aF"/><path fill="#333" d="M30-248c118-7 216 8 213 122C240-48 200 0 122 0H30v-248zM63-27c89 8 146-16 146-99s-60-101-146-95v194" id="aG"/><path fill="#333" d="M33 0v-248h34V0H33" id="aH"/><path fill="#333" d="M63-220v92h138v28H63V0H30v-248h175v28H63" id="aI"/><g id="o"><use transform="matrix(0.05,0,0,0.05,0,0)" xlink:href="#aE"/><use transform="matrix(0.05,0,0,0.05,9,0)" xlink:href="#O"/><use transform="matrix(0.05,0,0,0.05,14,0)" xlink:href="#R"/><use transform="matrix(0.05,0,0,0.05,24,0)" xlink:href="#L"/><use transform="matrix(0.05,0,0,0.05,34.95,0)" xlink:href="#S"/><use transform="matrix(0.05,0,0,0.05,43.95,0)" xlink:href="#aF"/><use transform="matrix(0.05,0,0,0.05,54.45,0)" xlink:href="#aG"/><use transform="matrix(0.05,0,0,0.05,67.4,0)" xlink:href="#aH"/><use transform="matrix(0.05,0,0,0.05,72.4,0)" xlink:href="#aI"/><use transform="matrix(0.05,0,0,0.05,83.35000000000001,0)" xlink:href="#aI"/><use transform="matrix(0.05,0,0,0.05,94.30000000000001,0)" xlink:href="#X"/></g><path fill="#333" d="M240 0l2-218c-23 76-54 145-80 218h-23L58-218 59 0H30v-248h44l77 211c21-75 51-140 76-211h43V0h-30" id="aJ"/><path fill="#333" d="M24-231v-30h32v30H24zM24 0v-190h32V0H24" id="aK"/><path fill="#333" d="M85-194c31 0 48 13 60 33l-1-100h32l1 261h-30c-2-10 0-23-3-31C134-8 116 4 85 4 32 4 16-35 15-94c0-66 23-100 70-100zm9 24c-40 0-46 34-46 75 0 40 6 74 45 74 42 0 51-32 51-76 0-42-9-74-50-73" id="aL"/><g id="p"><use transform="matrix(0.05,0,0,0.05,0,0)" xlink:href="#aJ"/><use transform="matrix(0.05,0,0,0.05,14.950000000000001,0)" xlink:href="#aK"/><use transform="matrix(0.05,0,0,0.05,18.900000000000002,0)" xlink:href="#aL"/><use transform="matrix(0.05,0,0,0.05,28.900000000000002,0)" xlink:href="#W"/></g><path fill="#333" d="M108 0H70L1-190h34L89-25l56-165h34" id="aM"/><path fill="#333" d="M117-194c89-4 53 116 60 194h-32v-121c0-31-8-49-39-48C34-167 62-67 57 0H25l-1-190h30c1 10-1 24 2 32 11-22 29-35 61-36" id="aN"/><g id="q"><use transform="matrix(0.05,0,0,0.05,0,0)" xlink:href="#P"/><use transform="matrix(0.05,0,0,0.05,10,0)" xlink:href="#aM"/><use transform="matrix(0.05,0,0,0.05,19,0)" xlink:href="#P"/><use transform="matrix(0.05,0,0,0.05,29,0)" xlink:href="#aN"/><use transform="matrix(0.05,0,0,0.05,39,0)" xlink:href="#O"/><use transform="matrix(0.05,0,0,0.05,44,0)" xlink:href="#W"/><use transform="matrix(0.05,0,0,0.05,54,0)" xlink:href="#aE"/></g><path fill="#333" d="M34 0v-190h32V0H34zM24-211c8-23 27-35 38-54h36v5l-58 49H24" id="aO"/><g id="r"><use transform="matrix(0.05,0,0,0.05,0,0)" xlink:href="#N"/><use transform="matrix(0.05,0,0,0.05,12,0)" xlink:href="#aO"/></g><path fill="#333" d="M24 0v-261h32V0H24" id="aP"/><g id="s"><use transform="matrix(0.05,0,0,0.05,0,0)" xlink:href="#aE"/><use transform="matrix(0.05,0,0,0.05,9,0)" xlink:href="#aP"/><use transform="matrix(0.05,0,0,0.05,12.949999999999998,0)" xlink:href="#W"/><use transform="matrix(0.05,0,0,0.05,22.95,0)" xlink:href="#O"/><use transform="matrix(0.05,0,0,0.05,27.950000000000003,0)" xlink:href="#aF"/></g><path fill="#333" d="M101-234c-31-9-42 10-38 44h38v23H63V0H32v-167H5v-23h27c-7-52 17-82 69-68v24" id="aQ"/><g id="t"><use transform="matrix(0.05,0,0,0.05,0,0)" xlink:href="#aE"/><use transform="matrix(0.05,0,0,0.05,9,0)" xlink:href="#aP"/><use transform="matrix(0.05,0,0,0.05,12.949999999999998,0)" xlink:href="#W"/><use transform="matrix(0.05,0,0,0.05,22.95,0)" xlink:href="#O"/><use transform="matrix(0.05,0,0,0.05,27.950000000000003,0)" xlink:href="#R"/><use transform="matrix(0.05,0,0,0.05,37.95,0)" xlink:href="#aG"/><use transform="matrix(0.05,0,0,0.05,50.900000000000006,0)" xlink:href="#aK"/><use transform="matrix(0.05,0,0,0.05,54.85,0)" xlink:href="#aQ"/><use transform="matrix(0.05,0,0,0.05,59.5,0)" xlink:href="#aQ"/></g><path fill="#333" d="M190 0L58-211 59 0H30v-248h39L202-35l-2-213h31V0h-41" id="aR"/><g id="u"><use transform="matrix(0.05,0,0,0.05,0,0)" xlink:href="#aR"/><use transform="matrix(0.05,0,0,0.05,12.950000000000001,0)" xlink:href="#W"/></g><g id="v"><use transform="matrix(0.05,0,0,0.05,0,0)" xlink:href="#N"/><use transform="matrix(0.05,0,0,0.05,12,0)" xlink:href="#aP"/><use transform="matrix(0.05,0,0,0.05,15.949999999999998,0)" xlink:href="#W"/><use transform="matrix(0.05,0,0,0.05,25.950000000000003,0)" xlink:href="#H"/><use transform="matrix(0.05,0,0,0.05,31.899999999999995,0)" xlink:href="#aF"/></g><g id="w"><use transform="matrix(0.05,0,0,0.05,0,0)" xlink:href="#N"/><use transform="matrix(0.05,0,0,0.05,12,0)" xlink:href="#aP"/><use transform="matrix(0.05,0,0,0.05,15.949999999999998,0)" xlink:href="#W"/><use transform="matrix(0.05,0,0,0.05,25.950000000000003,0)" xlink:href="#O"/><use transform="matrix(0.05,0,0,0.05,30.950000000000003,0)" xlink:href="#R"/><use transform="matrix(0.05,0,0,0.05,40.95,0)" xlink:href="#aR"/><use transform="matrix(0.05,0,0,0.05,53.900000000000006,0)" xlink:href="#W"/><use transform="matrix(0.05,0,0,0.05,63.900000000000006,0)" xlink:href="#H"/><use transform="matrix(0.05,0,0,0.05,69.85000000000001,0)" xlink:href="#I"/></g><path fill="#333" d="M205 0l-28-72H64L36 0H1l101-248h38L239 0h-34zm-38-99l-47-123c-12 45-31 82-46 123h93" id="aS"/><g id="x"><use transform="matrix(0.05,0,0,0.05,0,0)" xlink:href="#aS"/><use transform="matrix(0.05,0,0,0.05,12,0)" xlink:href="#aP"/><use transform="matrix(0.05,0,0,0.05,15.949999999999998,0)" xlink:href="#G"/><use transform="matrix(0.05,0,0,0.05,25.950000000000003,0)" xlink:href="#H"/><use transform="matrix(0.05,0,0,0.05,31.899999999999995,0)" xlink:href="#I"/><use transform="matrix(0.05,0,0,0.05,46.85,0)" xlink:href="#aF"/><use transform="matrix(0.05,0,0,0.05,57.35,0)" xlink:href="#N"/><use transform="matrix(0.05,0,0,0.05,69.35,0)" xlink:href="#P"/><use transform="matrix(0.05,0,0,0.05,79.35,0)" xlink:href="#O"/><use transform="matrix(0.05,0,0,0.05,84.35,0)" xlink:href="#T"/></g><path fill="#333" d="M179-190L93 31C79 59 56 82 12 73V49c39 6 53-20 64-50L1-190h34L92-34l54-156h33" id="aT"/><g id="y"><use transform="matrix(0.05,0,0,0.05,0,0)" xlink:href="#H"/><use transform="matrix(0.05,0,0,0.05,5.95,0)" xlink:href="#P"/><use transform="matrix(0.05,0,0,0.05,15.949999999999998,0)" xlink:href="#G"/><use transform="matrix(0.05,0,0,0.05,25.950000000000003,0)" xlink:href="#aL"/><use transform="matrix(0.05,0,0,0.05,35.95,0)" xlink:href="#aT"/></g><g id="z"><use transform="matrix(0.05,0,0,0.05,0,0)" xlink:href="#O"/><use transform="matrix(0.05,0,0,0.05,5,0)" xlink:href="#W"/></g><path fill="#333" d="M195 0l-74-108L45 0H8l94-129-87-119h37l69 98 67-98h37l-84 118L233 0h-38" id="aU"/><g id="A"><use transform="matrix(0.05,0,0,0.05,0,0)" xlink:href="#L"/><use transform="matrix(0.05,0,0,0.05,10.950000000000001,0)" xlink:href="#aU"/></g><path fill="#333" d="M96-169c-40 0-48 33-48 73s9 75 48 75c24 0 41-14 43-38l32 2c-6 37-31 61-74 61-59 0-76-41-82-99-10-93 101-131 147-64 4 7 5 14 7 22l-32 3c-4-21-16-35-41-35" id="aV"/><g id="B"><use transform="matrix(0.05,0,0,0.05,0,0)" xlink:href="#K"/><use transform="matrix(0.05,0,0,0.05,12.950000000000001,0)" xlink:href="#O"/><use transform="matrix(0.05,0,0,0.05,17.950000000000003,0)" xlink:href="#aV"/><use transform="matrix(0.05,0,0,0.05,26.950000000000003,0)" xlink:href="#aV"/><use transform="matrix(0.05,0,0,0.05,35.95,0)" xlink:href="#R"/><use transform="matrix(0.05,0,0,0.05,45.95,0)" xlink:href="#N"/><use transform="matrix(0.05,0,0,0.05,57.95,0)" xlink:href="#O"/><use transform="matrix(0.05,0,0,0.05,62.95,0)" xlink:href="#aF"/></g><path fill="#333" d="M140-251c81 0 123 46 123 126C263-46 219 4 140 4 59 4 17-45 17-125s42-126 123-126zm0 227c63 0 89-41 89-101s-29-99-89-99c-61 0-89 39-89 99S79-25 140-24" id="aW"/><g id="C"><use transform="matrix(0.05,0,0,0.05,0,0)" xlink:href="#K"/><use transform="matrix(0.05,0,0,0.05,12.950000000000001,0)" xlink:href="#R"/><use transform="matrix(0.05,0,0,0.05,22.950000000000003,0)" xlink:href="#aW"/><use transform="matrix(0.05,0,0,0.05,36.95,0)" xlink:href="#aR"/><use transform="matrix(0.05,0,0,0.05,49.900000000000006,0)" xlink:href="#X"/></g><path fill="#333" d="M115-194c53 0 69 39 70 98 0 66-23 100-70 100C84 3 66-7 56-30L54 0H23l1-261h32v101c10-23 28-34 59-34zm-8 174c40 0 45-34 45-75 0-40-5-75-45-74-42 0-51 32-51 76 0 43 10 73 51 73" id="aX"/><g id="D"><use transform="matrix(0.05,0,0,0.05,0,0)" xlink:href="#M"/><use transform="matrix(0.05,0,0,0.05,12.950000000000001,0)" xlink:href="#G"/><use transform="matrix(0.05,0,0,0.05,22.950000000000003,0)" xlink:href="#aP"/><use transform="matrix(0.05,0,0,0.05,26.900000000000002,0)" xlink:href="#aK"/><use transform="matrix(0.05,0,0,0.05,30.85,0)" xlink:href="#aX"/><use transform="matrix(0.05,0,0,0.05,40.85,0)" xlink:href="#H"/><use transform="matrix(0.05,0,0,0.05,46.800000000000004,0)" xlink:href="#W"/></g><g id="E"><use transform="matrix(0.05,0,0,0.05,0,0)" xlink:href="#K"/><use transform="matrix(0.05,0,0,0.05,12.600000000000001,0)" xlink:href="#L"/><use transform="matrix(0.05,0,0,0.05,23.550000000000004,0)" xlink:href="#M"/><use transform="matrix(0.05,0,0,0.05,36.50000000000001,0)" xlink:href="#M"/></g></defs></g></svg>