<svg xmlns="http://www.w3.org/2000/svg" xmlns:xlink="http://www.w3.org/1999/xlink" xmlns:lucid="lucid" width="772" height="504"><g transform="translate(-130 -106)" lucid:page-tab-id="HWEp-vi-RSFO"><path d="M350 351.9h200v97H350z" stroke="#333" stroke-width="2" fill="#fff"/><path d="M350 389.5h200" stroke="#333" stroke-width="2" fill="none"/><use xlink:href="#a" transform="matrix(1,0,0,1,358,359.90000000000015) translate(39.125 14.6)"/><use xlink:href="#b" transform="matrix(1,0,0,1,358,359.90000000000015) translate(104.975 14.6)"/><use xlink:href="#c" transform="matrix(1,0,0,1,362,397.50000000000017) translate(0 14.799999999999999)"/><use xlink:href="#d" transform="matrix(1,0,0,1,362,397.50000000000017) translate(81.5 14.799999999999999)"/><use xlink:href="#e" transform="matrix(1,0,0,1,362,397.50000000000017) translate(0 36.4)"/><use xlink:href="#f" transform="matrix(1,0,0,1,362,397.50000000000017) translate(86.85 36.4)"/><path d="M160 339.85h140v120H160z" stroke="#333" stroke-width="2" fill="#fff"/><path d="M160 377.45h140" stroke="#333" stroke-width="2" fill="none"/><use xlink:href="#g" transform="matrix(1,0,0,1,168,347.84848965626435) translate(3.5999999999999943 14.6)"/><use xlink:href="#h" transform="matrix(1,0,0,1,168,347.84848965626435) translate(56.55 14.6)"/><use xlink:href="#i" transform="matrix(1,0,0,1,172,385.44848965626437) translate(0 15.500000000000002)"/><use xlink:href="#j" transform="matrix(1,0,0,1,172,385.44848965626437) translate(51.95 15.500000000000002)"/><use xlink:href="#i" transform="matrix(1,0,0,1,172,385.44848965626437) translate(0 37.1)"/><use xlink:href="#k" transform="matrix(1,0,0,1,172,385.44848965626437) translate(51.95 37.1)"/><use xlink:href="#i" transform="matrix(1,0,0,1,172,385.44848965626437) translate(0 58.7)"/><use xlink:href="#l" transform="matrix(1,0,0,1,172,385.44848965626437) translate(51.95 58.7)"/><path d="M160 136.7h160v183H160z" stroke="#333" stroke-width="2" fill="#fff"/><path d="M160 174.3h160" stroke="#333" stroke-width="2" fill="none"/><use xlink:href="#g" transform="matrix(1,0,0,1,168,144.6969793125287) translate(8.574999999999996 14.6)"/><use xlink:href="#m" transform="matrix(1,0,0,1,168,144.6969793125287) translate(61.525 14.6)"/><use xlink:href="#i" transform="matrix(1,0,0,1,172,182.2969793125287) translate(0 14.600000000000003)"/><use xlink:href="#n" transform="matrix(1,0,0,1,172,182.2969793125287) translate(51.95 14.600000000000003)"/><use xlink:href="#i" transform="matrix(1,0,0,1,172,182.2969793125287) translate(0 36.2)"/><use xlink:href="#o" transform="matrix(1,0,0,1,172,182.2969793125287) translate(51.95 36.2)"/><use xlink:href="#i" transform="matrix(1,0,0,1,172,182.2969793125287) translate(0 57.800000000000004)"/><use xlink:href="#j" transform="matrix(1,0,0,1,172,182.2969793125287) translate(51.95 57.800000000000004)"/><use xlink:href="#i" transform="matrix(1,0,0,1,172,182.2969793125287) translate(0 79.40000000000002)"/><use xlink:href="#k" transform="matrix(1,0,0,1,172,182.2969793125287) translate(51.95 79.40000000000002)"/><use xlink:href="#i" transform="matrix(1,0,0,1,172,182.2969793125287) translate(0 101.00000000000001)"/><use xlink:href="#p" transform="matrix(1,0,0,1,172,182.2969793125287) translate(51.95 101.00000000000001)"/><use xlink:href="#i" transform="matrix(1,0,0,1,172,182.2969793125287) translate(0 122.60000000000001)"/><use xlink:href="#q" transform="matrix(1,0,0,1,172,182.2969793125287) translate(51.95 122.60000000000001)"/><path d="M453.15 75a8 8 0 0 1 8-8h836.75a8 8 0 0 1 8 8v25.16a8 8 0 0 1-8 8H461.15a8 8 0 0 1-8-8z" stroke="#000" stroke-opacity="0" stroke-width="2" fill="#fff" fill-opacity="0"/><use xlink:href="#r" transform="matrix(1,0,0,1,457.1465527853429,70.99999999994924) translate(369.0316049382716 23.657777777777778)"/><path d="M729.63 106.8H1039M729.65 106.8h-1.02M1038.96 106.8h1.03" stroke="#a9afb8" stroke-width="2" fill="none"/><path d="M453.15 116.16a8 8 0 0 1 8-8h837.7a8 8 0 0 1 8 8V119a8 8 0 0 1-8 8h-837.7a8 8 0 0 1-8-8z" stroke="#000" stroke-opacity="0" stroke-width="2" fill="#fff" fill-opacity="0"/><g><use xlink:href="#s" transform="matrix(1,0,0,1,457.1465527853434,112.15522395684805) translate(289.32316872427987 14.917037037037037)"/><use xlink:href="#t" transform="matrix(1,0,0,1,457.1465527853434,112.15522395684805) translate(361.51318930041157 14.917037037037037)"/><use xlink:href="#u" transform="matrix(1,0,0,1,457.1465527853434,112.15522395684805) translate(420.91380658436213 14.917037037037037)"/><use xlink:href="#v" transform="matrix(1,0,0,1,457.1465527853434,112.15522395684805) translate(433.36329218106994 14.917037037037037)"/><use xlink:href="#w" transform="matrix(1,0,0,1,457.1465527853434,112.15522395684805) translate(512.3091769547325 14.917037037037037)"/><use xlink:href="#x" transform="matrix(1,0,0,1,457.1465527853434,112.15522395684805) translate(529.305061728395 14.917037037037037)"/></g><path d="M160 480h180v100H160z" stroke="#333" stroke-width="2" fill="#fff"/><path d="M160 517.6h180" stroke="#333" stroke-width="2" fill="none"/><g><use xlink:href="#y" transform="matrix(1,0,0,1,168,488) translate(16.125 14.6)"/><use xlink:href="#z" transform="matrix(1,0,0,1,168,488) translate(69.075 14.6)"/></g><g><use xlink:href="#A" transform="matrix(1,0,0,1,172,525.6) translate(0 16.299999999999997)"/><use xlink:href="#B" transform="matrix(1,0,0,1,172,525.6) translate(61.95 16.299999999999997)"/><use xlink:href="#i" transform="matrix(1,0,0,1,172,525.6) translate(0 37.9)"/><use xlink:href="#C" transform="matrix(1,0,0,1,172,525.6) translate(51.95 37.9)"/></g><path d="M640 140h230v340H640z" stroke="#333" stroke-width="2" fill="#fff"/><path d="M640 177.6h230" stroke="#333" stroke-width="2" fill="none"/><g><use xlink:href="#D" transform="matrix(1,0,0,1,648,148) translate(62.05 14.6)"/><use xlink:href="#E" transform="matrix(1,0,0,1,648,148) translate(115 14.6)"/></g><g><use xlink:href="#F" transform="matrix(1,0,0,1,652,185.6) translate(0 28.300000000000004)"/><use xlink:href="#G" transform="matrix(1,0,0,1,652,185.6) translate(66.85 28.300000000000004)"/><use xlink:href="#H" transform="matrix(1,0,0,1,652,185.6) translate(0 49.900000000000006)"/><use xlink:href="#I" transform="matrix(1,0,0,1,652,185.6) translate(61.95 49.900000000000006)"/><use xlink:href="#H" transform="matrix(1,0,0,1,652,185.6) translate(0 71.50000000000001)"/><use xlink:href="#J" transform="matrix(1,0,0,1,652,185.6) translate(61.95 71.50000000000001)"/><use xlink:href="#H" transform="matrix(1,0,0,1,652,185.6) translate(0 93.10000000000002)"/><use xlink:href="#K" transform="matrix(1,0,0,1,652,185.6) translate(61.95 93.10000000000002)"/><use xlink:href="#H" transform="matrix(1,0,0,1,652,185.6) translate(0 114.70000000000002)"/><use xlink:href="#L" transform="matrix(1,0,0,1,652,185.6) translate(61.95 114.70000000000002)"/><use xlink:href="#H" transform="matrix(1,0,0,1,652,185.6) translate(0 136.3)"/><use xlink:href="#M" transform="matrix(1,0,0,1,652,185.6) translate(61.95 136.3)"/><use xlink:href="#H" transform="matrix(1,0,0,1,652,185.6) translate(0 157.9)"/><use xlink:href="#N" transform="matrix(1,0,0,1,652,185.6) translate(61.95 157.9)"/><use xlink:href="#O" transform="matrix(1,0,0,1,652,185.6) translate(0 179.5)"/><use xlink:href="#P" transform="matrix(1,0,0,1,652,185.6) translate(106.85 179.5)"/><use xlink:href="#Q" transform="matrix(1,0,0,1,652,185.6) translate(0 201.1)"/><use xlink:href="#R" transform="matrix(1,0,0,1,652,185.6) translate(106.5 201.1)"/><use xlink:href="#S" transform="matrix(1,0,0,1,652,185.6) translate(0 222.7)"/><use xlink:href="#T" transform="matrix(1,0,0,1,652,185.6) translate(109.9 222.7)"/><use xlink:href="#U" transform="matrix(1,0,0,1,652,185.6) translate(0 244.29999999999998)"/><use xlink:href="#V" transform="matrix(1,0,0,1,652,185.6) translate(108.80000000000001 244.29999999999998)"/><use xlink:href="#W" transform="matrix(1,0,0,1,652,185.6) translate(0 265.9)"/><use xlink:href="#X" transform="matrix(1,0,0,1,652,185.6) translate(106.95 265.9)"/></g><path d="M301.5 399.85h23.22a.28.28 0 0 1 .28.27.28.28 0 0 0 .28.28h7.34" stroke="#333" fill="none"/><path d="M301.5 400.35h-.5v-1h.5z" stroke="#333" stroke-width=".05" fill="#333"/><path d="M347.38 400.4l-14.26 4.64v-9.28z" stroke="#333" fill="#333"/><path d="M551.5 400.4h71.12" stroke="#333" fill="none"/><path d="M551.5 400.9h-.5v-1h.5z" stroke="#333" stroke-width=".05" fill="#333"/><path d="M637.38 400.4l-14.26 4.64v-9.28z" stroke="#333" fill="#333"/><path d="M341.5 530H578a12 12 0 0 0 12-12v-79.2a12 12 0 0 1 12-12h20.62" stroke="#333" fill="none"/><path d="M341.5 530.5h-.5v-1h.5z" stroke="#333" stroke-width=".05" fill="#333"/><path d="M637.38 426.8l-14.26 4.64v-9.28z" stroke="#333" fill="#333"/><path d="M321.5 228.2H578a12 12 0 0 1 12 12v128.2a12 12 0 0 0 12 12h20.62" stroke="#333" fill="none"/><path d="M321.5 228.7h-.5v-1h.5z" stroke="#333" stroke-width=".05" fill="#333"/><path d="M637.38 380.4l-14.26 4.64v-9.28z" stroke="#333" fill="#333"/><defs><path fill="#333" d="M67-125c0 53 21 87 73 88 37 1 54-22 65-47l45 17C233-25 199 4 140 4 58 4 20-42 15-125 8-235 124-281 211-232c18 10 29 29 36 50l-46 12c-8-25-30-41-62-41-52 0-71 34-72 86" id="Y"/><path fill="#333" d="M24 0v-248h52v208h133V0H24" id="Z"/><path fill="#333" d="M199 0l-22-63H83L61 0H9l90-248h61L250 0h-51zm-33-102l-36-108c-10 38-24 72-36 108h72" id="aa"/><path fill="#333" d="M169-182c-1-43-94-46-97-3 18 66 151 10 154 114 3 95-165 93-204 36-6-8-10-19-12-30l50-8c3 46 112 56 116 5-17-69-150-10-154-114-4-87 153-88 188-35 5 8 8 18 10 28" id="ab"/><path fill="#333" d="M24 0v-248h195v40H76v63h132v40H76v65h150V0H24" id="ac"/><g id="a"><use transform="matrix(0.05,0,0,0.05,0,0)" xlink:href="#Y"/><use transform="matrix(0.05,0,0,0.05,12.950000000000001,0)" xlink:href="#Z"/><use transform="matrix(0.05,0,0,0.05,23.900000000000002,0)" xlink:href="#aa"/><use transform="matrix(0.05,0,0,0.05,36.85,0)" xlink:href="#ab"/><use transform="matrix(0.05,0,0,0.05,48.85,0)" xlink:href="#ac"/></g><path fill="#333" d="M230 0l2-204L168 0h-37L68-204 70 0H24v-248h70l56 185 57-185h69V0h-46" id="ad"/><path fill="#333" d="M24-248c120-7 223 5 221 122C244-46 201 0 124 0H24v-248zM76-40c74 7 117-18 117-86 0-67-45-88-117-82v168" id="ae"/><g id="b"><use transform="matrix(0.05,0,0,0.05,0,0)" xlink:href="#ad"/><use transform="matrix(0.05,0,0,0.05,14.950000000000001,0)" xlink:href="#ac"/><use transform="matrix(0.05,0,0,0.05,26.950000000000003,0)" xlink:href="#ae"/></g><path fill="#333" d="M30-248c118-7 216 8 213 122C240-48 200 0 122 0H30v-248zM63-27c89 8 146-16 146-99s-60-101-146-95v194" id="af"/><path fill="#333" d="M205 0l-28-72H64L36 0H1l101-248h38L239 0h-34zm-38-99l-47-123c-12 45-31 82-46 123h93" id="ag"/><path fill="#333" d="M127-220V0H93v-220H8v-28h204v28h-85" id="ah"/><path fill="#333" d="M30 0v-248h187v28H63v79h144v27H63v87h162V0H30" id="ai"/><path fill="#333" d="M-5 72V49h209v23H-5" id="aj"/><path fill="#333" d="M240 0l2-218c-23 76-54 145-80 218h-23L58-218 59 0H30v-248h44l77 211c21-75 51-140 76-211h43V0h-30" id="ak"/><g id="c"><use transform="matrix(0.05,0,0,0.05,0,0)" xlink:href="#af"/><use transform="matrix(0.05,0,0,0.05,12.950000000000001,0)" xlink:href="#ag"/><use transform="matrix(0.05,0,0,0.05,23.6,0)" xlink:href="#ah"/><use transform="matrix(0.05,0,0,0.05,34.550000000000004,0)" xlink:href="#ai"/><use transform="matrix(0.05,0,0,0.05,46.550000000000004,0)" xlink:href="#aj"/><use transform="matrix(0.05,0,0,0.05,56.550000000000004,0)" xlink:href="#ak"/></g><path fill="#333" d="M141-36C126-15 110 5 73 4 37 3 15-17 15-53c-1-64 63-63 125-63 3-35-9-54-41-54-24 1-41 7-42 31l-33-3c5-37 33-52 76-52 45 0 72 20 72 64v82c-1 20 7 32 28 27v20c-31 9-61-2-59-35zM48-53c0 20 12 33 32 33 41-3 63-29 60-74-43 2-92-5-92 41" id="al"/><path fill="#333" d="M59-47c-2 24 18 29 38 22v24C64 9 27 4 27-40v-127H5v-23h24l9-43h21v43h35v23H59v120" id="am"/><path fill="#333" d="M100-194c63 0 86 42 84 106H49c0 40 14 67 53 68 26 1 43-12 49-29l28 8c-11 28-37 45-77 45C44 4 14-33 15-96c1-61 26-98 85-98zm52 81c6-60-76-77-97-28-3 7-6 17-6 28h103" id="an"/><path fill="#333" d="M135-143c-3-34-86-38-87 0 15 53 115 12 119 90S17 21 10-45l28-5c4 36 97 45 98 0-10-56-113-15-118-90-4-57 82-63 122-42 12 7 21 19 24 35" id="ao"/><path fill="#333" d="M84 4C-5 8 30-112 23-190h32v120c0 31 7 50 39 49 72-2 45-101 50-169h31l1 190h-30c-1-10 1-25-2-33-11 22-28 36-60 37" id="ap"/><path fill="#333" d="M68-36c1 33-1 63-14 82H32c9-13 17-26 17-46H33v-36h35zM33-154v-36h35v36H33" id="aq"/><g id="d"><use transform="matrix(0.05,0,0,0.05,0,0)" xlink:href="#af"/><use transform="matrix(0.05,0,0,0.05,12.950000000000001,0)" xlink:href="#al"/><use transform="matrix(0.05,0,0,0.05,22.950000000000003,0)" xlink:href="#am"/><use transform="matrix(0.05,0,0,0.05,27.950000000000003,0)" xlink:href="#an"/><use transform="matrix(0.05,0,0,0.05,37.95,0)" xlink:href="#ak"/><use transform="matrix(0.05,0,0,0.05,52.900000000000006,0)" xlink:href="#an"/><use transform="matrix(0.05,0,0,0.05,62.900000000000006,0)" xlink:href="#ao"/><use transform="matrix(0.05,0,0,0.05,71.9,0)" xlink:href="#ap"/><use transform="matrix(0.05,0,0,0.05,81.9,0)" xlink:href="#aq"/></g><path fill="#333" d="M266 0h-40l-56-210L115 0H75L2-248h35L96-30l15-64 43-154h32l59 218 59-218h35" id="ar"/><path fill="#333" d="M140-251c81 0 123 46 123 126C263-46 219 4 140 4 59 4 17-45 17-125s42-126 123-126zm0 227c63 0 89-41 89-101s-29-99-89-99c-61 0-89 39-89 99S79-25 140-24" id="as"/><path fill="#333" d="M233-177c-1 41-23 64-60 70L243 0h-38l-65-103H63V0H30v-248c88 3 205-21 203 71zM63-129c60-2 137 13 137-47 0-61-80-42-137-45v92" id="at"/><g id="e"><use transform="matrix(0.05,0,0,0.05,0,0)" xlink:href="#ar"/><use transform="matrix(0.05,0,0,0.05,16.95,0)" xlink:href="#as"/><use transform="matrix(0.05,0,0,0.05,30.950000000000003,0)" xlink:href="#at"/><use transform="matrix(0.05,0,0,0.05,43.9,0)" xlink:href="#af"/></g><path fill="#333" d="M114-163C36-179 61-72 57 0H25l-1-190h30c1 12-1 29 2 39 6-27 23-49 58-41v29" id="au"/><g id="f"><use transform="matrix(0.05,0,0,0.05,0,0)" xlink:href="#ak"/><use transform="matrix(0.05,0,0,0.05,14.950000000000001,0)" xlink:href="#an"/><use transform="matrix(0.05,0,0,0.05,24.950000000000003,0)" xlink:href="#ao"/><use transform="matrix(0.05,0,0,0.05,33.95,0)" xlink:href="#ap"/><use transform="matrix(0.05,0,0,0.05,43.95,0)" xlink:href="#au"/><use transform="matrix(0.05,0,0,0.05,49.900000000000006,0)" xlink:href="#an"/></g><path fill="#333" d="M25 0v-261h50V0H25" id="av"/><path fill="#333" d="M133-34C117-15 103 5 69 4 32 3 11-16 11-54c-1-60 55-63 116-61 1-26-3-47-28-47-18 1-26 9-28 27l-52-2c7-38 36-58 82-57s74 22 75 68l1 82c-1 14 12 18 25 15v27c-30 8-71 5-69-32zm-48 3c29 0 43-24 42-57-32 0-66-3-65 30 0 17 8 27 23 27" id="aw"/><path fill="#333" d="M137-138c1-29-70-34-71-4 15 46 118 7 119 86 1 83-164 76-172 9l43-7c4 19 20 25 44 25 33 8 57-30 24-41C81-84 22-81 20-136c-2-80 154-74 161-7" id="ax"/><path fill="#333" d="M185-48c-13 30-37 53-82 52C43 2 14-33 14-96s30-98 90-98c62 0 83 45 84 108H66c0 31 8 55 39 56 18 0 30-7 34-22zm-45-69c5-46-57-63-70-21-2 6-4 13-4 21h74" id="ay"/><g id="g"><use transform="matrix(0.05,0,0,0.05,0,0)" xlink:href="#Y"/><use transform="matrix(0.05,0,0,0.05,12.950000000000001,0)" xlink:href="#av"/><use transform="matrix(0.05,0,0,0.05,17.950000000000003,0)" xlink:href="#aw"/><use transform="matrix(0.05,0,0,0.05,27.950000000000003,0)" xlink:href="#ax"/><use transform="matrix(0.05,0,0,0.05,37.95,0)" xlink:href="#ay"/></g><path fill="#333" d="M115-3C79 11 28 4 28-45v-112H4v-33h27l15-45h31v45h36v33H77v99c-1 23 16 31 38 25v30" id="az"/><path fill="#333" d="M-4 44V30h207v14H-4" id="aA"/><g id="h"><use transform="matrix(0.05,0,0,0.05,0,0)" xlink:href="#ae"/><use transform="matrix(0.05,0,0,0.05,12.950000000000001,0)" xlink:href="#aw"/><use transform="matrix(0.05,0,0,0.05,22.950000000000003,0)" xlink:href="#az"/><use transform="matrix(0.05,0,0,0.05,28.900000000000002,0)" xlink:href="#ay"/><use transform="matrix(0.05,0,0,0.05,38.900000000000006,0)" xlink:href="#aA"/><use transform="matrix(0.05,0,0,0.05,48.900000000000006,0)" xlink:href="#ad"/></g><path fill="#333" d="M160-131c35 5 61 23 61 61C221 17 115-2 30 0v-248c76 3 177-17 177 60 0 33-19 50-47 57zm-97-11c50-1 110 9 110-42 0-47-63-36-110-37v79zm0 115c55-2 124 14 124-45 0-56-70-42-124-44v89" id="aB"/><path fill="#333" d="M137-103V0h-34v-103L8-248h37l75 118 75-118h37" id="aC"/><g id="i"><use transform="matrix(0.05,0,0,0.05,0,0)" xlink:href="#aB"/><use transform="matrix(0.05,0,0,0.05,12,0)" xlink:href="#aC"/><use transform="matrix(0.05,0,0,0.05,24,0)" xlink:href="#ah"/><use transform="matrix(0.05,0,0,0.05,34.95,0)" xlink:href="#ai"/></g><path fill="#333" d="M197 0v-115H63V0H30v-248h33v105h134v-105h34V0h-34" id="aD"/><path fill="#333" d="M100-194c62-1 85 37 85 99 1 63-27 99-86 99S16-35 15-95c0-66 28-99 85-99zM99-20c44 1 53-31 53-75 0-43-8-75-51-75s-53 32-53 75 10 74 51 75" id="aE"/><g id="j"><use transform="matrix(0.05,0,0,0.05,0,0)" xlink:href="#aD"/><use transform="matrix(0.05,0,0,0.05,12.950000000000001,0)" xlink:href="#aE"/><use transform="matrix(0.05,0,0,0.05,22.950000000000003,0)" xlink:href="#ap"/><use transform="matrix(0.05,0,0,0.05,32.95,0)" xlink:href="#aq"/></g><path fill="#333" d="M179-190L93 31C79 59 56 82 12 73V49c39 6 53-20 64-50L1-190h34L92-34l54-156h33" id="aF"/><g id="k"><use transform="matrix(0.05,0,0,0.05,0,0)" xlink:href="#af"/><use transform="matrix(0.05,0,0,0.05,12.950000000000001,0)" xlink:href="#al"/><use transform="matrix(0.05,0,0,0.05,22.950000000000003,0)" xlink:href="#aF"/><use transform="matrix(0.05,0,0,0.05,31.950000000000003,0)" xlink:href="#aq"/></g><path fill="#333" d="M117-194c89-4 53 116 60 194h-32v-121c0-31-8-49-39-48C34-167 62-67 57 0H25l-1-190h30c1 10-1 24 2 32 11-22 29-35 61-36" id="aG"/><g id="l"><use transform="matrix(0.05,0,0,0.05,0,0)" xlink:href="#ak"/><use transform="matrix(0.05,0,0,0.05,14.950000000000001,0)" xlink:href="#aE"/><use transform="matrix(0.05,0,0,0.05,24.950000000000003,0)" xlink:href="#aG"/><use transform="matrix(0.05,0,0,0.05,34.95,0)" xlink:href="#aq"/></g><path fill="#333" d="M190-63c-7 42-38 67-86 67-59 0-84-38-90-98-12-110 154-137 174-36l-49 2c-2-19-15-32-35-32-30 0-35 28-38 64-6 74 65 87 74 30" id="aH"/><path fill="#333" d="M147 0L96-86 75-71V0H25v-261h50v150l67-79h53l-66 74L201 0h-54" id="aI"/><g id="m"><use transform="matrix(0.05,0,0,0.05,0,0)" xlink:href="#ae"/><use transform="matrix(0.05,0,0,0.05,12.950000000000001,0)" xlink:href="#aw"/><use transform="matrix(0.05,0,0,0.05,22.950000000000003,0)" xlink:href="#az"/><use transform="matrix(0.05,0,0,0.05,28.900000000000002,0)" xlink:href="#ay"/><use transform="matrix(0.05,0,0,0.05,38.900000000000006,0)" xlink:href="#aA"/><use transform="matrix(0.05,0,0,0.05,48.900000000000006,0)" xlink:href="#aH"/><use transform="matrix(0.05,0,0,0.05,58.900000000000006,0)" xlink:href="#av"/><use transform="matrix(0.05,0,0,0.05,63.900000000000006,0)" xlink:href="#aI"/></g><path fill="#333" d="M185-189c-5-48-123-54-124 2 14 75 158 14 163 119 3 78-121 87-175 55-17-10-28-26-33-46l33-7c5 56 141 63 141-1 0-78-155-14-162-118-5-82 145-84 179-34 5 7 8 16 11 25" id="aJ"/><path fill="#333" d="M177-190C167-65 218 103 67 71c-23-6-38-20-44-43l32-5c15 47 100 32 89-28v-30C133-14 115 1 83 1 29 1 15-40 15-95c0-56 16-97 71-98 29-1 48 16 59 35 1-10 0-23 2-32h30zM94-22c36 0 50-32 50-73 0-42-14-75-50-75-39 0-46 34-46 75s6 73 46 73" id="aK"/><g id="n"><use transform="matrix(0.05,0,0,0.05,0,0)" xlink:href="#aJ"/><use transform="matrix(0.05,0,0,0.05,12,0)" xlink:href="#an"/><use transform="matrix(0.05,0,0,0.05,22,0)" xlink:href="#aK"/><use transform="matrix(0.05,0,0,0.05,32,0)" xlink:href="#aq"/></g><path fill="#333" d="M24-231v-30h32v30H24zM24 0v-190h32V0H24" id="aL"/><g id="o"><use transform="matrix(0.05,0,0,0.05,0,0)" xlink:href="#ak"/><use transform="matrix(0.05,0,0,0.05,14.950000000000001,0)" xlink:href="#aL"/><use transform="matrix(0.05,0,0,0.05,18.900000000000002,0)" xlink:href="#aG"/><use transform="matrix(0.05,0,0,0.05,28.900000000000002,0)" xlink:href="#aq"/></g><g id="p"><use transform="matrix(0.05,0,0,0.05,0,0)" xlink:href="#ak"/><use transform="matrix(0.05,0,0,0.05,14.950000000000001,0)" xlink:href="#aE"/><use transform="matrix(0.05,0,0,0.05,24.950000000000003,0)" xlink:href="#aG"/><use transform="matrix(0.05,0,0,0.05,34.95,0)" xlink:href="#aq"/></g><g id="q"><use transform="matrix(0.05,0,0,0.05,0,0)" xlink:href="#aC"/><use transform="matrix(0.05,0,0,0.05,10.35,0)" xlink:href="#an"/><use transform="matrix(0.05,0,0,0.05,20.35,0)" xlink:href="#al"/><use transform="matrix(0.05,0,0,0.05,30.35,0)" xlink:href="#aq"/></g><path fill="#a9afb8" d="M128 0H69L1-190h53L99-40l48-150h52" id="aM"/><path fill="#a9afb8" d="M133-34C117-15 103 5 69 4 32 3 11-16 11-54c-1-60 55-63 116-61 1-26-3-47-28-47-18 1-26 9-28 27l-52-2c7-38 36-58 82-57s74 22 75 68l1 82c-1 14 12 18 25 15v27c-30 8-71 5-69-32zm-48 3c29 0 43-24 42-57-32 0-66-3-65 30 0 17 8 27 23 27" id="aN"/><path fill="#a9afb8" d="M135-150c-39-12-60 13-60 57V0H25l-1-190h47c2 13-1 29 3 40 6-28 27-53 61-41v41" id="aO"/><path fill="#a9afb8" d="M25-224v-37h50v37H25zM25 0v-190h50V0H25" id="aP"/><path fill="#a9afb8" d="M135-194c52 0 70 43 70 98 0 56-19 99-73 100-30 1-46-15-58-35L72 0H24l1-261h50v104c11-23 29-37 60-37zM114-30c31 0 40-27 40-66 0-37-7-63-39-63s-41 28-41 65c0 36 8 64 40 64" id="aQ"/><path fill="#a9afb8" d="M25 0v-261h50V0H25" id="aR"/><path fill="#a9afb8" d="M185-48c-13 30-37 53-82 52C43 2 14-33 14-96s30-98 90-98c62 0 83 45 84 108H66c0 31 8 55 39 56 18 0 30-7 34-22zm-45-69c5-46-57-63-70-21-2 6-4 13-4 21h74" id="aS"/><path fill="#a9afb8" d="M137-138c1-29-70-34-71-4 15 46 118 7 119 86 1 83-164 76-172 9l43-7c4 19 20 25 44 25 33 8 57-30 24-41C81-84 22-81 20-136c-2-80 154-74 161-7" id="aT"/><g id="r"><use transform="matrix(0.0728395061728395,0,0,0.0728395061728395,0,0)" xlink:href="#aM"/><use transform="matrix(0.0728395061728395,0,0,0.0728395061728395,14.5679012345679,0)" xlink:href="#aN"/><use transform="matrix(0.0728395061728395,0,0,0.0728395061728395,29.1358024691358,0)" xlink:href="#aO"/><use transform="matrix(0.0728395061728395,0,0,0.0728395061728395,39.333333333333336,0)" xlink:href="#aP"/><use transform="matrix(0.0728395061728395,0,0,0.0728395061728395,46.61728395061728,0)" xlink:href="#aN"/><use transform="matrix(0.0728395061728395,0,0,0.0728395061728395,61.185185185185176,0)" xlink:href="#aQ"/><use transform="matrix(0.0728395061728395,0,0,0.0728395061728395,77.13703703703703,0)" xlink:href="#aR"/><use transform="matrix(0.0728395061728395,0,0,0.0728395061728395,84.42098765432098,0)" xlink:href="#aS"/><use transform="matrix(0.0728395061728395,0,0,0.0728395061728395,98.9888888888889,0)" xlink:href="#aT"/></g><path fill="#a9afb8" d="M185-189c-5-48-123-54-124 2 14 75 158 14 163 119 3 78-121 87-175 55-17-10-28-26-33-46l33-7c5 56 141 63 141-1 0-78-155-14-162-118-5-82 145-84 179-34 5 7 8 16 11 25" id="aU"/><path fill="#a9afb8" d="M100-194c63 0 86 42 84 106H49c0 40 14 67 53 68 26 1 43-12 49-29l28 8c-11 28-37 45-77 45C44 4 14-33 15-96c1-61 26-98 85-98zm52 81c6-60-76-77-97-28-3 7-6 17-6 28h103" id="aV"/><path fill="#a9afb8" d="M115-194c53 0 69 39 70 98 0 66-23 100-70 100C84 3 66-7 56-30L54 0H23l1-261h32v101c10-23 28-34 59-34zm-8 174c40 0 45-34 45-75 0-40-5-75-45-74-42 0-51 32-51 76 0 43 10 73 51 73" id="aW"/><path fill="#a9afb8" d="M141-36C126-15 110 5 73 4 37 3 15-17 15-53c-1-64 63-63 125-63 3-35-9-54-41-54-24 1-41 7-42 31l-33-3c5-37 33-52 76-52 45 0 72 20 72 64v82c-1 20 7 32 28 27v20c-31 9-61-2-59-35zM48-53c0 20 12 33 32 33 41-3 63-29 60-74-43 2-92-5-92 41" id="aX"/><path fill="#a9afb8" d="M135-143c-3-34-86-38-87 0 15 53 115 12 119 90S17 21 10-45l28-5c4 36 97 45 98 0-10-56-113-15-118-90-4-57 82-63 122-42 12 7 21 19 24 35" id="aY"/><path fill="#a9afb8" d="M59-47c-2 24 18 29 38 22v24C64 9 27 4 27-40v-127H5v-23h24l9-43h21v43h35v23H59v120" id="aZ"/><path fill="#a9afb8" d="M24-231v-30h32v30H24zM24 0v-190h32V0H24" id="ba"/><path fill="#a9afb8" d="M141-36C126-15 110 5 73 4 37 3 15-17 15-53c-1-64 63-63 125-63 3-35-9-54-41-54-24 1-41 7-42 31l-33-3c5-37 33-52 76-52 45 0 72 20 72 64v82c-1 20 7 32 28 27v20c-31 9-61-2-59-35zM48-53c0 20 12 33 32 33 41-3 63-29 60-74-43 2-92-5-92 41zm25-158c8-23 27-35 38-54h36v5l-58 49H73" id="bb"/><path fill="#a9afb8" d="M117-194c89-4 53 116 60 194h-32v-121c0-31-8-49-39-48C34-167 62-67 57 0H25l-1-190h30c1 10-1 24 2 32 11-22 29-35 61-36" id="bc"/><g id="s"><use transform="matrix(0.04248971193415638,0,0,0.04248971193415638,0,0)" xlink:href="#aU"/><use transform="matrix(0.04248971193415638,0,0,0.04248971193415638,10.19753086419753,0)" xlink:href="#aV"/><use transform="matrix(0.04248971193415638,0,0,0.04248971193415638,18.695473251028805,0)" xlink:href="#aW"/><use transform="matrix(0.04248971193415638,0,0,0.04248971193415638,27.193415637860078,0)" xlink:href="#aX"/><use transform="matrix(0.04248971193415638,0,0,0.04248971193415638,35.691358024691354,0)" xlink:href="#aY"/><use transform="matrix(0.04248971193415638,0,0,0.04248971193415638,43.3395061728395,0)" xlink:href="#aZ"/><use transform="matrix(0.04248971193415638,0,0,0.04248971193415638,47.588477366255134,0)" xlink:href="#ba"/><use transform="matrix(0.04248971193415638,0,0,0.04248971193415638,50.945164609053485,0)" xlink:href="#bb"/><use transform="matrix(0.04248971193415638,0,0,0.04248971193415638,59.44310699588476,0)" xlink:href="#bc"/></g><path fill="#a9afb8" d="M205 0l-28-72H64L36 0H1l101-248h38L239 0h-34zm-38-99l-47-123c-12 45-31 82-46 123h93" id="bd"/><path fill="#a9afb8" d="M24 0v-261h32V0H24" id="be"/><path fill="#a9afb8" d="M85-194c31 0 48 13 60 33l-1-100h32l1 261h-30c-2-10 0-23-3-31C134-8 116 4 85 4 32 4 16-35 15-94c0-66 23-100 70-100zm9 24c-40 0-46 34-46 75 0 40 6 74 45 74 42 0 51-32 51-76 0-42-9-74-50-73" id="bf"/><g id="t"><use transform="matrix(0.04248971193415638,0,0,0.04248971193415638,0,0)" xlink:href="#bd"/><use transform="matrix(0.04248971193415638,0,0,0.04248971193415638,10.19753086419753,0)" xlink:href="#be"/><use transform="matrix(0.04248971193415638,0,0,0.04248971193415638,13.554218106995881,0)" xlink:href="#be"/><use transform="matrix(0.04248971193415638,0,0,0.04248971193415638,16.910905349794238,0)" xlink:href="#aV"/><use transform="matrix(0.04248971193415638,0,0,0.04248971193415638,25.408847736625507,0)" xlink:href="#bc"/><use transform="matrix(0.04248971193415638,0,0,0.04248971193415638,33.90679012345679,0)" xlink:href="#bf"/><use transform="matrix(0.04248971193415638,0,0,0.04248971193415638,42.40473251028806,0)" xlink:href="#aV"/></g><path fill="#a9afb8" d="M32 76v-337h29V76H32" id="bg"/><use transform="matrix(0.04248971193415638,0,0,0.04248971193415638,0,0)" xlink:href="#bg" id="u"/><path fill="#a9afb8" d="M115-194c55 1 70 41 70 98S169 2 115 4C84 4 66-9 55-30l1 105H24l-1-265h31l2 30c10-21 28-34 59-34zm-8 174c40 0 45-34 45-75s-6-73-45-74c-42 0-51 32-51 76 0 43 10 73 51 73" id="bh"/><path fill="#a9afb8" d="M210-169c-67 3-38 105-44 169h-31v-121c0-29-5-50-35-48C34-165 62-65 56 0H25l-1-190h30c1 10-1 24 2 32 10-44 99-50 107 0 11-21 27-35 58-36 85-2 47 119 55 194h-31v-121c0-29-5-49-35-48" id="bi"/><path fill="#a9afb8" d="M114-163C36-179 61-72 57 0H25l-1-190h30c1 12-1 29 2 39 6-27 23-49 58-41v29" id="bj"/><g id="v"><use transform="matrix(0.04248971193415638,0,0,0.04248971193415638,0,0)" xlink:href="#aU"/><use transform="matrix(0.04248971193415638,0,0,0.04248971193415638,10.19753086419753,0)" xlink:href="#aV"/><use transform="matrix(0.04248971193415638,0,0,0.04248971193415638,18.695473251028805,0)" xlink:href="#bh"/><use transform="matrix(0.04248971193415638,0,0,0.04248971193415638,27.193415637860078,0)" xlink:href="#aZ"/><use transform="matrix(0.04248971193415638,0,0,0.04248971193415638,31.442386831275712,0)" xlink:href="#aV"/><use transform="matrix(0.04248971193415638,0,0,0.04248971193415638,39.94032921810699,0)" xlink:href="#bi"/><use transform="matrix(0.04248971193415638,0,0,0.04248971193415638,52.64475308641975,0)" xlink:href="#aW"/><use transform="matrix(0.04248971193415638,0,0,0.04248971193415638,61.142695473251024,0)" xlink:href="#aV"/><use transform="matrix(0.04248971193415638,0,0,0.04248971193415638,69.6406378600823,0)" xlink:href="#bj"/></g><path fill="#a9afb8" d="M54-142c48-35 137-8 131 61C196 18 31 33 14-55l32-4c7 23 22 37 52 37 35-1 51-22 54-58 4-55-73-65-99-34H22l8-134h141v27H59" id="bk"/><path fill="#a9afb8" d="M68-38c1 34 0 65-14 84H32c9-13 17-26 17-46H33v-38h35" id="bl"/><g id="w"><use transform="matrix(0.04248971193415638,0,0,0.04248971193415638,0,0)" xlink:href="#bk"/><use transform="matrix(0.04248971193415638,0,0,0.04248971193415638,8.497942386831275,0)" xlink:href="#bl"/></g><path fill="#a9afb8" d="M101-251c82-7 93 87 43 132L82-64C71-53 59-42 53-27h129V0H18c2-99 128-94 128-182 0-28-16-43-45-43s-46 15-49 41l-32-3c6-41 34-60 81-64" id="bm"/><path fill="#a9afb8" d="M101-251c68 0 85 55 85 127S166 4 100 4C33 4 14-52 14-124c0-73 17-127 87-127zm-1 229c47 0 54-49 54-102s-4-102-53-102c-51 0-55 48-55 102 0 53 5 102 54 102" id="bn"/><g id="x"><use transform="matrix(0.04248971193415638,0,0,0.04248971193415638,0,0)" xlink:href="#bm"/><use transform="matrix(0.04248971193415638,0,0,0.04248971193415638,8.497942386831275,0)" xlink:href="#bn"/><use transform="matrix(0.04248971193415638,0,0,0.04248971193415638,16.99588477366255,0)" xlink:href="#bm"/><use transform="matrix(0.04248971193415638,0,0,0.04248971193415638,25.493827160493822,0)" xlink:href="#bm"/></g><g id="y"><use transform="matrix(0.05,0,0,0.05,0,0)" xlink:href="#Y"/><use transform="matrix(0.05,0,0,0.05,12.950000000000001,0)" xlink:href="#av"/><use transform="matrix(0.05,0,0,0.05,17.950000000000003,0)" xlink:href="#aw"/><use transform="matrix(0.05,0,0,0.05,27.950000000000003,0)" xlink:href="#ax"/><use transform="matrix(0.05,0,0,0.05,37.95,0)" xlink:href="#ay"/></g><path fill="#333" d="M24 0v-248h52V0H24" id="bo"/><path fill="#333" d="M76-208v77h127v40H76V0H24v-248h183v40H76" id="bp"/><g id="z"><use transform="matrix(0.05,0,0,0.05,0,0)" xlink:href="#ad"/><use transform="matrix(0.05,0,0,0.05,14.950000000000001,0)" xlink:href="#ac"/><use transform="matrix(0.05,0,0,0.05,26.950000000000003,0)" xlink:href="#ae"/><use transform="matrix(0.05,0,0,0.05,39.900000000000006,0)" xlink:href="#aA"/><use transform="matrix(0.05,0,0,0.05,49.900000000000006,0)" xlink:href="#ae"/><use transform="matrix(0.05,0,0,0.05,62.85,0)" xlink:href="#bo"/><use transform="matrix(0.05,0,0,0.05,67.85000000000001,0)" xlink:href="#bp"/></g><g id="A"><use transform="matrix(0.05,0,0,0.05,0,0)" xlink:href="#aB"/><use transform="matrix(0.05,0,0,0.05,12,0)" xlink:href="#aC"/><use transform="matrix(0.05,0,0,0.05,24,0)" xlink:href="#ah"/><use transform="matrix(0.05,0,0,0.05,34.95,0)" xlink:href="#ai"/></g><path fill="#333" d="M33 0v-248h34V0H33" id="bq"/><path fill="#333" d="M85-194c31 0 48 13 60 33l-1-100h32l1 261h-30c-2-10 0-23-3-31C134-8 116 4 85 4 32 4 16-35 15-94c0-66 23-100 70-100zm9 24c-40 0-46 34-46 75 0 40 6 74 45 74 42 0 51-32 51-76 0-42-9-74-50-73" id="br"/><path fill="#333" d="M141 0L90-78 38 0H4l68-98-65-92h35l48 74 47-74h35l-64 92 68 98h-35" id="bs"/><g id="B"><use transform="matrix(0.05,0,0,0.05,0,0)" xlink:href="#bq"/><use transform="matrix(0.05,0,0,0.05,5,0)" xlink:href="#aG"/><use transform="matrix(0.05,0,0,0.05,15,0)" xlink:href="#br"/><use transform="matrix(0.05,0,0,0.05,25,0)" xlink:href="#an"/><use transform="matrix(0.05,0,0,0.05,35,0)" xlink:href="#bs"/><use transform="matrix(0.05,0,0,0.05,44,0)" xlink:href="#aq"/></g><path fill="#333" d="M26 75v-336h71v23H56V52h41v23H26" id="bt"/><path fill="#333" d="M190 0L58-211 59 0H30v-248h39L202-35l-2-213h31V0h-41" id="bu"/><path fill="#333" d="M3 75V52h41v-290H3v-23h71V75H3" id="bv"/><g id="C"><use transform="matrix(0.05,0,0,0.05,0,0)" xlink:href="#ak"/><use transform="matrix(0.05,0,0,0.05,14.950000000000001,0)" xlink:href="#an"/><use transform="matrix(0.05,0,0,0.05,24.950000000000003,0)" xlink:href="#br"/><use transform="matrix(0.05,0,0,0.05,34.95,0)" xlink:href="#aL"/><use transform="matrix(0.05,0,0,0.05,38.900000000000006,0)" xlink:href="#br"/><use transform="matrix(0.05,0,0,0.05,48.900000000000006,0)" xlink:href="#al"/><use transform="matrix(0.05,0,0,0.05,58.900000000000006,0)" xlink:href="#af"/><use transform="matrix(0.05,0,0,0.05,71.85000000000001,0)" xlink:href="#bt"/><use transform="matrix(0.05,0,0,0.05,76.85000000000001,0)" xlink:href="#bu"/><use transform="matrix(0.05,0,0,0.05,89.80000000000001,0)" xlink:href="#bv"/></g><path d="M67-125c0 53 21 87 73 88 37 1 54-22 65-47l45 17C233-25 199 4 140 4 58 4 20-42 15-125 8-235 124-281 211-232c18 10 29 29 36 50l-46 12c-8-25-30-41-62-41-52 0-71 34-72 86" id="bw"/><path d="M25 0v-261h50V0H25" id="bx"/><path d="M133-34C117-15 103 5 69 4 32 3 11-16 11-54c-1-60 55-63 116-61 1-26-3-47-28-47-18 1-26 9-28 27l-52-2c7-38 36-58 82-57s74 22 75 68l1 82c-1 14 12 18 25 15v27c-30 8-71 5-69-32zm-48 3c29 0 43-24 42-57-32 0-66-3-65 30 0 17 8 27 23 27" id="by"/><path d="M137-138c1-29-70-34-71-4 15 46 118 7 119 86 1 83-164 76-172 9l43-7c4 19 20 25 44 25 33 8 57-30 24-41C81-84 22-81 20-136c-2-80 154-74 161-7" id="bz"/><path d="M185-48c-13 30-37 53-82 52C43 2 14-33 14-96s30-98 90-98c62 0 83 45 84 108H66c0 31 8 55 39 56 18 0 30-7 34-22zm-45-69c5-46-57-63-70-21-2 6-4 13-4 21h74" id="bA"/><g id="D"><use transform="matrix(0.05,0,0,0.05,0,0)" xlink:href="#bw"/><use transform="matrix(0.05,0,0,0.05,12.950000000000001,0)" xlink:href="#bx"/><use transform="matrix(0.05,0,0,0.05,17.950000000000003,0)" xlink:href="#by"/><use transform="matrix(0.05,0,0,0.05,27.950000000000003,0)" xlink:href="#bz"/><use transform="matrix(0.05,0,0,0.05,37.95,0)" xlink:href="#bA"/></g><path d="M199 0l-22-63H83L61 0H9l90-248h61L250 0h-51zm-33-102l-36-108c-10 38-24 72-36 108h72" id="bB"/><path d="M24-248c93 1 206-16 204 79-1 75-69 88-152 82V0H24v-248zm52 121c47 0 100 7 100-41 0-47-54-39-100-39v80" id="bC"/><g id="E"><use transform="matrix(0.05,0,0,0.05,0,0)" xlink:href="#bB"/><use transform="matrix(0.05,0,0,0.05,12.950000000000001,0)" xlink:href="#bC"/><use transform="matrix(0.05,0,0,0.05,24.950000000000003,0)" xlink:href="#bC"/></g><g id="F"><use transform="matrix(0.05,0,0,0.05,0,0)" xlink:href="#ar"/><use transform="matrix(0.05,0,0,0.05,16.95,0)" xlink:href="#as"/><use transform="matrix(0.05,0,0,0.05,30.950000000000003,0)" xlink:href="#at"/><use transform="matrix(0.05,0,0,0.05,43.9,0)" xlink:href="#af"/></g><g id="G"><use transform="matrix(0.05,0,0,0.05,0,0)" xlink:href="#bq"/><use transform="matrix(0.05,0,0,0.05,5,0)" xlink:href="#af"/><use transform="matrix(0.05,0,0,0.05,17.950000000000003,0)" xlink:href="#aq"/></g><g id="H"><use transform="matrix(0.05,0,0,0.05,0,0)" xlink:href="#aB"/><use transform="matrix(0.05,0,0,0.05,12,0)" xlink:href="#aC"/><use transform="matrix(0.05,0,0,0.05,24,0)" xlink:href="#ah"/><use transform="matrix(0.05,0,0,0.05,34.95,0)" xlink:href="#ai"/></g><g id="I"><use transform="matrix(0.05,0,0,0.05,0,0)" xlink:href="#ah"/><use transform="matrix(0.05,0,0,0.05,8.950000000000001,0)" xlink:href="#aq"/></g><path fill="#333" d="M96-169c-40 0-48 33-48 73s9 75 48 75c24 0 41-14 43-38l32 2c-6 37-31 61-74 61-59 0-76-41-82-99-10-93 101-131 147-64 4 7 5 14 7 22l-32 3c-4-21-16-35-41-35" id="bD"/><g id="J"><use transform="matrix(0.05,0,0,0.05,0,0)" xlink:href="#aJ"/><use transform="matrix(0.05,0,0,0.05,12,0)" xlink:href="#an"/><use transform="matrix(0.05,0,0,0.05,22,0)" xlink:href="#bD"/><use transform="matrix(0.05,0,0,0.05,31,0)" xlink:href="#aq"/></g><g id="K"><use transform="matrix(0.05,0,0,0.05,0,0)" xlink:href="#bu"/><use transform="matrix(0.05,0,0,0.05,12.950000000000001,0)" xlink:href="#aq"/></g><g id="L"><use transform="matrix(0.05,0,0,0.05,0,0)" xlink:href="#bu"/><use transform="matrix(0.05,0,0,0.05,12.950000000000001,0)" xlink:href="#aE"/><use transform="matrix(0.05,0,0,0.05,22.950000000000003,0)" xlink:href="#aL"/><use transform="matrix(0.05,0,0,0.05,26.900000000000002,0)" xlink:href="#ao"/><use transform="matrix(0.05,0,0,0.05,35.900000000000006,0)" xlink:href="#an"/><use transform="matrix(0.05,0,0,0.05,45.900000000000006,0)" xlink:href="#aq"/></g><path fill="#333" d="M24 0v-261h32V0H24" id="bE"/><g id="M"><use transform="matrix(0.05,0,0,0.05,0,0)" xlink:href="#aJ"/><use transform="matrix(0.05,0,0,0.05,12,0)" xlink:href="#aL"/><use transform="matrix(0.05,0,0,0.05,15.949999999999998,0)" xlink:href="#aG"/><use transform="matrix(0.05,0,0,0.05,25.950000000000003,0)" xlink:href="#aK"/><use transform="matrix(0.05,0,0,0.05,35.95,0)" xlink:href="#aG"/><use transform="matrix(0.05,0,0,0.05,45.95,0)" xlink:href="#al"/><use transform="matrix(0.05,0,0,0.05,55.95,0)" xlink:href="#bE"/><use transform="matrix(0.05,0,0,0.05,59.900000000000006,0)" xlink:href="#aq"/></g><g id="N"><use transform="matrix(0.05,0,0,0.05,0,0)" xlink:href="#aB"/><use transform="matrix(0.05,0,0,0.05,12,0)" xlink:href="#al"/><use transform="matrix(0.05,0,0,0.05,22,0)" xlink:href="#am"/><use transform="matrix(0.05,0,0,0.05,27,0)" xlink:href="#aq"/></g><g id="O"><use transform="matrix(0.05,0,0,0.05,0,0)" xlink:href="#ar"/><use transform="matrix(0.05,0,0,0.05,16.95,0)" xlink:href="#as"/><use transform="matrix(0.05,0,0,0.05,30.950000000000003,0)" xlink:href="#at"/><use transform="matrix(0.05,0,0,0.05,43.9,0)" xlink:href="#af"/></g><g id="P"><use transform="matrix(0.05,0,0,0.05,0,0)" xlink:href="#aJ"/><use transform="matrix(0.05,0,0,0.05,12,0)" xlink:href="#bE"/><use transform="matrix(0.05,0,0,0.05,15.949999999999998,0)" xlink:href="#aE"/><use transform="matrix(0.05,0,0,0.05,25.950000000000003,0)" xlink:href="#am"/><use transform="matrix(0.05,0,0,0.05,30.950000000000003,0)" xlink:href="#aq"/></g><path fill="#333" d="M212-179c-10-28-35-45-73-45-59 0-87 40-87 99 0 60 29 101 89 101 43 0 62-24 78-52l27 14C228-24 195 4 139 4 59 4 22-46 18-125c-6-104 99-153 187-111 19 9 31 26 39 46" id="bF"/><path fill="#333" d="M30 0v-248h33v221h125V0H30" id="bG"/><path fill="#333" d="M194 0L95-120 63-95V0H30v-248h33v124l119-124h40L117-140 236 0h-42" id="bH"/><g id="Q"><use transform="matrix(0.05,0,0,0.05,0,0)" xlink:href="#af"/><use transform="matrix(0.05,0,0,0.05,12.950000000000001,0)" xlink:href="#ag"/><use transform="matrix(0.05,0,0,0.05,23.6,0)" xlink:href="#ah"/><use transform="matrix(0.05,0,0,0.05,34.550000000000004,0)" xlink:href="#ai"/><use transform="matrix(0.05,0,0,0.05,46.550000000000004,0)" xlink:href="#aj"/><use transform="matrix(0.05,0,0,0.05,56.550000000000004,0)" xlink:href="#bF"/><use transform="matrix(0.05,0,0,0.05,69.5,0)" xlink:href="#bG"/><use transform="matrix(0.05,0,0,0.05,79.5,0)" xlink:href="#bH"/></g><g id="R"><use transform="matrix(0.05,0,0,0.05,0,0)" xlink:href="#af"/><use transform="matrix(0.05,0,0,0.05,12.950000000000001,0)" xlink:href="#al"/><use transform="matrix(0.05,0,0,0.05,22.950000000000003,0)" xlink:href="#am"/><use transform="matrix(0.05,0,0,0.05,27.950000000000003,0)" xlink:href="#an"/><use transform="matrix(0.05,0,0,0.05,37.95,0)" xlink:href="#ah"/><use transform="matrix(0.05,0,0,0.05,48.900000000000006,0)" xlink:href="#bs"/><use transform="matrix(0.05,0,0,0.05,57.900000000000006,0)" xlink:href="#aq"/></g><g id="S"><use transform="matrix(0.05,0,0,0.05,0,0)" xlink:href="#ak"/><use transform="matrix(0.05,0,0,0.05,14.950000000000001,0)" xlink:href="#ai"/><use transform="matrix(0.05,0,0,0.05,26.950000000000003,0)" xlink:href="#af"/></g><g id="T"><use transform="matrix(0.05,0,0,0.05,0,0)" xlink:href="#ak"/><use transform="matrix(0.05,0,0,0.05,14.950000000000001,0)" xlink:href="#an"/><use transform="matrix(0.05,0,0,0.05,24.950000000000003,0)" xlink:href="#br"/><use transform="matrix(0.05,0,0,0.05,34.95,0)" xlink:href="#aL"/><use transform="matrix(0.05,0,0,0.05,38.900000000000006,0)" xlink:href="#br"/><use transform="matrix(0.05,0,0,0.05,48.900000000000006,0)" xlink:href="#al"/><use transform="matrix(0.05,0,0,0.05,58.900000000000006,0)" xlink:href="#at"/><use transform="matrix(0.05,0,0,0.05,71.85000000000001,0)" xlink:href="#ai"/><use transform="matrix(0.05,0,0,0.05,83.85000000000001,0)" xlink:href="#aq"/></g><path fill="#333" d="M63-220v92h138v28H63V0H30v-248h175v28H63" id="bI"/><g id="U"><use transform="matrix(0.05,0,0,0.05,0,0)" xlink:href="#ak"/><use transform="matrix(0.05,0,0,0.05,14.950000000000001,0)" xlink:href="#ai"/><use transform="matrix(0.05,0,0,0.05,26.950000000000003,0)" xlink:href="#af"/><use transform="matrix(0.05,0,0,0.05,39.900000000000006,0)" xlink:href="#aj"/><use transform="matrix(0.05,0,0,0.05,49.900000000000006,0)" xlink:href="#af"/><use transform="matrix(0.05,0,0,0.05,62.85,0)" xlink:href="#bq"/><use transform="matrix(0.05,0,0,0.05,67.85000000000001,0)" xlink:href="#bI"/></g><path fill="#333" d="M101-234c-31-9-42 10-38 44h38v23H63V0H32v-167H5v-23h27c-7-52 17-82 69-68v24" id="bJ"/><g id="V"><use transform="matrix(0.05,0,0,0.05,0,0)" xlink:href="#ak"/><use transform="matrix(0.05,0,0,0.05,14.950000000000001,0)" xlink:href="#an"/><use transform="matrix(0.05,0,0,0.05,24.950000000000003,0)" xlink:href="#br"/><use transform="matrix(0.05,0,0,0.05,34.95,0)" xlink:href="#aL"/><use transform="matrix(0.05,0,0,0.05,38.900000000000006,0)" xlink:href="#br"/><use transform="matrix(0.05,0,0,0.05,48.900000000000006,0)" xlink:href="#al"/><use transform="matrix(0.05,0,0,0.05,58.900000000000006,0)" xlink:href="#af"/><use transform="matrix(0.05,0,0,0.05,71.85000000000001,0)" xlink:href="#aL"/><use transform="matrix(0.05,0,0,0.05,75.80000000000001,0)" xlink:href="#bJ"/><use transform="matrix(0.05,0,0,0.05,80.80000000000001,0)" xlink:href="#aq"/></g><g id="W"><use transform="matrix(0.05,0,0,0.05,0,0)" xlink:href="#aB"/><use transform="matrix(0.05,0,0,0.05,12,0)" xlink:href="#aC"/><use transform="matrix(0.05,0,0,0.05,24,0)" xlink:href="#ah"/><use transform="matrix(0.05,0,0,0.05,34.95,0)" xlink:href="#ai"/></g><g id="X"><use transform="matrix(0.05,0,0,0.05,0,0)" xlink:href="#aJ"/><use transform="matrix(0.05,0,0,0.05,12,0)" xlink:href="#bE"/><use transform="matrix(0.05,0,0,0.05,15.949999999999998,0)" xlink:href="#aE"/><use transform="matrix(0.05,0,0,0.05,25.950000000000003,0)" xlink:href="#am"/><use transform="matrix(0.05,0,0,0.05,30.950000000000003,0)" xlink:href="#af"/><use transform="matrix(0.05,0,0,0.05,43.9,0)" xlink:href="#aL"/><use transform="matrix(0.05,0,0,0.05,47.85,0)" xlink:href="#bJ"/><use transform="matrix(0.05,0,0,0.05,52.5,0)" xlink:href="#bJ"/><use transform="matrix(0.05,0,0,0.05,57.5,0)" xlink:href="#aq"/></g></defs></g></svg>